<svg width="26" height="11" viewBox="0 0 26 11" fill="none" xmlns="http://www.w3.org/2000/svg">
<path fill-rule="evenodd" clip-rule="evenodd" d="M5.27297 1.43958C4.98694 1.7822 4.52929 2.05244 4.07165 2.01383C4.01444 1.55057 4.2385 1.05836 4.50069 0.754343C4.78672 0.402072 5.28728 0.151138 5.69249 0.131836C5.74016 0.614399 5.55424 1.08731 5.27297 1.43958ZM5.68769 2.10551C5.2845 2.08202 4.91662 2.22825 4.61947 2.34636C4.42825 2.42237 4.26632 2.48673 4.14312 2.48673C4.00487 2.48673 3.83625 2.41892 3.64694 2.34279C3.39887 2.24304 3.11526 2.12899 2.81785 2.13446C2.13614 2.14411 1.5021 2.53499 1.1541 3.15749C0.439024 4.40251 0.96818 6.2459 1.65942 7.25928C1.99789 7.76115 2.4031 8.31127 2.93702 8.29197C3.17192 8.283 3.34089 8.21042 3.51576 8.13531C3.71708 8.04883 3.92621 7.959 4.25277 7.959C4.568 7.959 4.76799 8.04649 4.95997 8.13048C5.14251 8.21033 5.31781 8.28702 5.57804 8.28232C6.13103 8.27267 6.47904 7.78045 6.81751 7.27859C7.18276 6.73996 7.34328 6.21428 7.36764 6.13449L7.36764 6.13449L7.3705 6.12526C7.36992 6.12467 7.3654 6.12258 7.35744 6.11889C7.23534 6.0623 6.30207 5.62981 6.29312 4.47007C6.28413 3.49663 7.03336 3.00342 7.1513 2.92579L7.15131 2.92578C7.15849 2.92106 7.16332 2.91787 7.16551 2.91621C6.68879 2.20202 5.94511 2.12481 5.68769 2.10551ZM9.51577 8.22923V0.70607H12.3046C13.7443 0.70607 14.7501 1.7098 14.7501 3.17679C14.7501 4.64379 13.7252 5.65717 12.2664 5.65717H10.6694V8.22923H9.51577ZM10.6693 1.69052H11.9994C13.0005 1.69052 13.5725 2.23099 13.5725 3.18164C13.5725 4.13229 13.0005 4.67759 11.9946 4.67759H10.6693V1.69052ZM18.5592 7.32688C18.2541 7.91561 17.5819 8.28718 16.8573 8.28718C15.7847 8.28718 15.0362 7.64055 15.0362 6.66577C15.0362 5.70064 15.7608 5.1457 17.1004 5.06366L18.5401 4.9768V4.56179C18.5401 3.94894 18.1444 3.61597 17.4389 3.61597C16.8573 3.61597 16.433 3.91999 16.3472 4.38325H15.3079C15.3413 3.40847 16.2471 2.6991 17.4722 2.6991C18.7928 2.6991 19.6508 3.39882 19.6508 4.48458V8.22928H18.583V7.32688H18.5592ZM17.1671 7.39441C16.5521 7.39441 16.1612 7.09522 16.1612 6.63678C16.1612 6.16387 16.5378 5.88881 17.2576 5.84538L18.54 5.76335V6.188C18.54 6.89254 17.9489 7.39441 17.1671 7.39441ZM23.1928 8.52363C22.7304 9.84103 22.2012 10.2753 21.0762 10.2753C20.9904 10.2753 20.7043 10.2657 20.6376 10.2464V9.34399C20.7091 9.35364 20.8855 9.36329 20.9761 9.36329C21.4862 9.36329 21.7722 9.14614 21.9486 8.58154L22.0535 8.24857L20.0989 2.77148H21.305L22.6637 7.21589H22.6875L24.0461 2.77148H25.2189L23.1928 8.52363Z" fill="#282739"/>
</svg>
