<svg width="26" height="11" viewBox="0 0 26 11" fill="none" xmlns="http://www.w3.org/2000/svg">
<path fill-rule="evenodd" clip-rule="evenodd" d="M12.0943 8.65901V5.7177H13.6124C14.2345 5.7177 14.7595 5.50926 15.1875 5.09817L15.2903 4.99395C16.0721 4.14283 16.0208 2.81692 15.1875 2.02948C14.7709 1.6126 14.2002 1.38679 13.6124 1.39837H11.1755V8.65901H12.0943ZM12.0944 4.82599V2.28998H13.6356C13.9666 2.28998 14.2806 2.41736 14.5146 2.64896C15.0112 3.13532 15.0226 3.94591 14.5432 4.44964C14.3091 4.69861 13.9781 4.83757 13.6356 4.82599H12.0944ZM19.5763 4.07912C19.1825 3.71435 18.646 3.52907 17.9669 3.52907C17.0937 3.52907 16.4374 3.85331 16.0037 4.496L16.8141 5.01131C17.1108 4.57127 17.516 4.35125 18.0297 4.35125C18.355 4.35125 18.6689 4.47284 18.9143 4.69286C19.154 4.9013 19.2909 5.20238 19.2909 5.52082V5.73505C18.9371 5.53819 18.4919 5.43398 17.9441 5.43398C17.3049 5.43398 16.7912 5.58451 16.4089 5.89138C16.0265 6.19825 15.8325 6.60355 15.8325 7.11886C15.8211 7.58785 16.0208 8.03368 16.3746 8.33476C16.7342 8.659 17.1907 8.82112 17.7272 8.82112C18.3607 8.82112 18.8629 8.53741 19.2453 7.96999H19.2852V8.659H20.1641V5.59609C20.1641 4.95341 19.9701 4.44389 19.5763 4.07912ZM17.0825 7.74422C16.8941 7.60526 16.78 7.37945 16.78 7.13627C16.78 6.86414 16.9055 6.63833 17.151 6.45884C17.4021 6.27935 17.7161 6.18671 18.0871 6.18671C18.6008 6.18092 19.0003 6.29672 19.2857 6.52832C19.2857 6.92204 19.1316 7.26365 18.8291 7.55315C18.5551 7.83107 18.1841 7.98739 17.796 7.98739C17.5391 7.99318 17.288 7.90633 17.0825 7.74422ZM22.1388 10.8418L25.2091 3.69118H24.2104L22.7894 7.25781H22.7722L21.3169 3.69118H20.3182L22.3328 8.34054L21.1914 10.8418H22.1388Z" fill="#282739"/>
<path d="M8.92219 5.08081C8.92219 4.7971 8.89936 4.51339 8.85371 4.23547H4.97864V5.8393H7.19867C7.10736 6.35461 6.81059 6.81781 6.37686 7.10731V8.1495H7.70089C8.47704 7.42575 8.92219 6.35461 8.92219 5.08081Z" fill="#4285F4"/>
<path d="M4.97882 9.157C6.08599 9.157 7.02194 8.78644 7.70107 8.14954L6.37704 7.10735C6.00609 7.36211 5.5324 7.50686 4.97882 7.50686C3.9059 7.50686 2.99848 6.77153 2.67318 5.78723H1.3092V6.86417C2.00546 8.27113 3.42651 9.157 4.97882 9.157Z" fill="#34A853"/>
<path d="M2.67333 5.78722C2.50209 5.27192 2.50209 4.71029 2.67333 4.18919V3.11804H1.30913C0.721215 4.29341 0.721215 5.683 1.30913 6.85837L2.67333 5.78722Z" fill="#FBBC04"/>
<path d="M4.97882 2.46949C5.56665 2.45791 6.13164 2.68372 6.55396 3.09481L7.72961 1.90207C6.98199 1.19569 6.00038 0.807764 4.97882 0.819344C3.42651 0.819344 2.00546 1.711 1.3092 3.11797L2.67318 4.1949C2.99848 3.20482 3.9059 2.46949 4.97882 2.46949Z" fill="#EA4335"/>
</svg>
