<svg width="22" height="14" viewBox="0 0 22 14" fill="none" xmlns="http://www.w3.org/2000/svg">
<path d="M13.347 7.12371C13.347 10.8356 10.3724 13.8447 6.70312 13.8447C3.03381 13.8447 0.0592499 10.8356 0.0592499 7.12371C0.0592499 3.4118 3.03381 0.40271 6.70312 0.40271C10.3724 0.40271 13.347 3.4118 13.347 7.12371Z" fill="#ED0006"/>
<path d="M21.9661 7.12371C21.9661 10.8356 18.9915 13.8447 15.3222 13.8447C11.6529 13.8447 8.67831 10.8356 8.67831 7.12371C8.67831 3.4118 11.6529 0.40271 15.3222 0.40271C18.9915 0.40271 21.9661 3.4118 21.9661 7.12371Z" fill="#0099DF"/>
<path fill-rule="evenodd" clip-rule="evenodd" d="M11.0127 12.2391C12.4412 11.0064 13.347 9.17206 13.347 7.12372C13.347 5.07538 12.4412 3.24106 11.0127 2.0083C9.58418 3.24106 8.67838 5.07538 8.67838 7.12372C8.67838 9.17206 9.58418 11.0064 11.0127 12.2391Z" fill="#6C6BBD"/>
</svg>
