<svg width="23" height="14" viewBox="0 0 23 14" fill="none" xmlns="http://www.w3.org/2000/svg">
<path fill-rule="evenodd" clip-rule="evenodd" d="M15.3767 13.8447C19.046 13.8447 22.0206 10.8356 22.0206 7.12371C22.0206 3.4118 19.046 0.40271 15.3767 0.40271C13.7323 0.40271 12.2273 1.0071 11.0672 2.00828C9.90702 1.00712 8.40211 0.402738 6.75766 0.402738C3.08835 0.402738 0.113785 3.41183 0.113785 7.12374C0.113785 10.8356 3.08835 13.8447 6.75766 13.8447C8.40212 13.8447 9.90705 13.2403 11.0672 12.2392C12.2274 13.2403 13.7323 13.8447 15.3767 13.8447Z" fill="#ED0006"/>
<path fill-rule="evenodd" clip-rule="evenodd" d="M11.0672 12.2392C12.4957 11.0064 13.4015 9.17206 13.4015 7.12371C13.4015 5.07535 12.4957 3.24102 11.0672 2.00826C12.2274 1.0071 13.7323 0.40271 15.3767 0.40271C19.046 0.40271 22.0206 3.4118 22.0206 7.12371C22.0206 10.8356 19.046 13.8447 15.3767 13.8447C13.7323 13.8447 12.2274 13.2403 11.0672 12.2392Z" fill="#F9A000"/>
<path fill-rule="evenodd" clip-rule="evenodd" d="M11.0672 12.2391C12.4957 11.0064 13.4015 9.17206 13.4015 7.12372C13.4015 5.07538 12.4957 3.24106 11.0672 2.0083C9.63871 3.24106 8.73291 5.07538 8.73291 7.12372C8.73291 9.17206 9.63871 11.0064 11.0672 12.2391Z" fill="#FF5E00"/>
</svg>
