<svg width="16" height="17" viewBox="0 0 16 17" fill="none" xmlns="http://www.w3.org/2000/svg">
<path fill-rule="evenodd" clip-rule="evenodd" d="M0.409096 7.57878C0.409096 11.3487 3.48359 14.4232 7.29012 14.4232C7.75733 14.4232 8.22454 14.3823 8.76137 14.3353C9.36002 14.2829 10.0453 14.2229 10.9136 14.2036C12.2313 14.2036 13.6587 14.6794 15.2326 16.0702C15.379 16.2167 15.5986 16.0336 15.4522 15.8506C13.8783 13.9108 12.4509 13.5448 11.0234 13.2154C9.26658 12.8127 8.35155 11.8611 7.72933 10.7631C7.61953 10.5435 7.54633 10.5801 7.54633 10.8729C7.50972 11.3121 7.54633 11.7147 7.61953 12.1173H7.39992C4.91104 12.1173 2.86137 10.0677 2.86137 7.57878C2.86137 5.0899 4.91104 3.04023 7.39992 3.04023C9.8888 3.04023 11.9385 5.0899 11.9385 7.57878C11.9385 7.72518 11.9385 7.90819 11.9019 8.09119C11.5359 8.01799 10.9136 8.01799 10.4378 8.05459C10.2548 8.05459 10.2548 8.12779 10.4012 8.16439C11.8653 8.4572 12.8901 9.37223 13.1463 11.0559C13.1463 11.1291 13.1829 11.1291 13.2195 11.0925C13.8051 10.0677 14.1711 8.85982 14.1711 7.57878C14.1711 3.77225 11.0966 0.697754 7.29012 0.697754C3.48359 0.697754 0.409096 3.80885 0.409096 7.57878ZM12.2678 10.3971C12.524 10.5069 12.6338 10.8729 12.6338 11.0559C12.6704 11.3487 12.5972 11.4951 12.4874 11.4951C12.3776 11.4951 12.2312 11.3853 12.0848 11.1291C11.9384 10.8729 11.8652 10.6167 11.9384 10.4703C12.0482 10.3971 12.158 10.3605 12.2678 10.3971ZM10.7672 11.5317C10.9136 11.5317 11.0966 11.6049 11.2796 11.7513C11.5724 12.0075 11.6822 12.3004 11.5358 12.52C11.4626 12.6298 11.2796 12.703 11.1332 12.703C10.9502 12.703 10.7672 12.6298 10.6574 12.52C10.3646 12.2638 10.2914 11.8977 10.4744 11.6781C10.511 11.6049 10.6208 11.5317 10.7672 11.5317Z" fill="#F28A1A"/>
</svg>
