<svg width="20" height="16" viewBox="0 0 20 16" fill="none" xmlns="http://www.w3.org/2000/svg">
<path d="M0.435077 12.895C0.843411 14.3434 2.09258 14.6084 2.17591 14.6592C4.23174 15.2192 15.7551 15.2209 17.8417 14.6592C19.2709 14.2459 19.5334 12.9784 19.5826 12.895C20.1267 10 20.1626 6.22587 19.5576 2.94087L19.5826 3.10421C19.1742 1.65587 17.9251 1.39087 17.8417 1.34004C15.8134 0.789208 4.26008 0.768374 2.17591 1.34004C0.746744 1.75421 0.484244 3.02087 0.435077 3.10421C-0.147423 6.14671 -0.17659 9.63754 0.435077 12.895ZM8.00674 11.0425V4.96504L13.2284 8.00838L8.00674 11.0425Z" fill="#E53935"/>
</svg>
