<svg width="20" height="12" viewBox="0 0 20 12" fill="none" xmlns="http://www.w3.org/2000/svg">
<path d="M16.5958 6.85675C16.2725 6.44842 16.365 6.26675 16.5958 5.90175C16.6 5.89758 19.2692 2.20925 19.5442 0.958415L19.5458 0.957581C19.6825 0.501748 19.5458 0.166748 18.885 0.166748H16.6983C16.1417 0.166748 15.885 0.454248 15.7475 0.775915C15.7475 0.775915 14.6342 3.44092 13.0592 5.16842C12.5508 5.66758 12.3158 5.82758 12.0383 5.82758C11.9017 5.82758 11.6892 5.66758 11.6892 5.21175V0.957581C11.6892 0.410915 11.5333 0.166748 11.0725 0.166748H7.63417C7.285 0.166748 7.0775 0.421748 7.0775 0.659248C7.0775 1.17758 7.865 1.29675 7.94667 2.75508V5.91925C7.94667 6.61258 7.82083 6.74008 7.54167 6.74008C6.79833 6.74008 4.99417 4.06425 3.925 1.00175C3.70917 0.407581 3.49833 0.167581 2.9375 0.167581H0.75C0.125833 0.167581 0 0.455081 0 0.776748C0 1.34508 0.743333 4.17092 3.45667 7.90425C5.265 10.4526 7.81167 11.8334 10.1283 11.8334C11.5208 11.8334 11.6908 11.5267 11.6908 10.9992C11.6908 8.56425 11.565 8.33425 12.2625 8.33425C12.5858 8.33425 13.1425 8.49425 14.4425 9.72342C15.9283 11.1809 16.1725 11.8334 17.0042 11.8334H19.1908C19.8142 11.8334 20.13 11.5267 19.9483 10.9217C19.5325 9.64925 16.7225 7.03175 16.5958 6.85675Z" fill="#4B729F"/>
</svg>
