<svg width="24" height="16" viewBox="0 0 24 16" fill="none" xmlns="http://www.w3.org/2000/svg">
<path fill-rule="evenodd" clip-rule="evenodd" d="M7.54742 12.0491C7.69995 11.9699 7.95923 11.8659 8.23388 11.8659C8.86432 11.8659 9.20508 12.2916 9.20508 13.0838C9.20508 14.0091 8.74758 14.4596 8.01022 14.4596C7.7406 14.4596 7.32367 14.3755 7.01852 14.2169V10.7622L7.54742 10.6384V12.0491ZM7.54241 14.0338C7.70501 14.1031 7.88308 14.1129 8.01024 14.1129C8.38653 14.1129 8.67125 13.8853 8.67125 13.0837C8.67125 12.4549 8.43734 12.252 8.09667 12.252C7.89315 12.252 7.74584 12.3064 7.54241 12.4153V14.0338ZM2.12647 11.9301H2.16208L2.85349 14.4001H3.40262L4.22651 10.8907H3.6315L3.11286 13.5092H3.07742L2.37046 10.8907H1.91791L1.2569 13.5092H1.22128L0.651735 10.8907H0.0822754L0.906067 14.4001H1.45511L2.12647 11.9301ZM6.4798 14.2317V13.8556C6.2001 14.0189 5.94595 14.1129 5.67139 14.1129C5.14761 14.1129 4.8985 13.8505 4.8985 13.2566H6.55606V13.0736C6.55606 12.2669 6.16449 11.8659 5.52902 11.8659C4.76629 11.8659 4.37472 12.4104 4.37472 13.1626C4.37472 13.9448 4.72555 14.4596 5.57974 14.4596C5.94595 14.4596 6.25101 14.3606 6.4798 14.2317ZM6.07299 12.9251H4.9088C4.96456 12.4303 5.20342 12.1976 5.51379 12.1976C5.78835 12.1976 6.04781 12.4053 6.07299 12.9251ZM11.5442 13.6576H11.5187L10.3797 10.8907H9.76445V14.4001H10.2221V11.9154H10.2678L11.3053 14.4001H11.6306L12.668 11.856H12.7138V14.4001H13.263V10.8907H12.6323L11.5442 13.6576ZM13.8224 13.1626C13.8224 12.2964 14.3106 11.8659 14.9817 11.8659C15.653 11.8659 16.1412 12.2964 16.1412 13.1626C16.1412 14.0091 15.6785 14.4596 14.9817 14.4596C14.285 14.4596 13.8224 14.0091 13.8224 13.1626ZM15.6072 13.1626C15.6072 12.4945 15.3274 12.2124 14.9817 12.2124C14.6461 12.2124 14.3562 12.4945 14.3562 13.1626C14.3562 13.8409 14.6208 14.1129 14.9817 14.1129C15.3427 14.1129 15.6072 13.8409 15.6072 13.1626ZM17.9206 11.8659C17.3361 11.8659 16.8529 12.0985 16.6241 12.2321V14.4001H17.153V12.44C17.3105 12.3511 17.5699 12.2618 17.7734 12.2618C18.0327 12.2618 18.2308 12.3311 18.2308 12.7222V14.4001H18.7596V12.6082C18.7596 12.0985 18.531 11.8659 17.9206 11.8659ZM21.3376 13.8556V14.2317C21.1089 14.3606 20.8039 14.4596 20.4376 14.4596C19.5835 14.4596 19.2326 13.9448 19.2326 13.1626C19.2326 12.4104 19.6243 11.8659 20.3869 11.8659C21.0227 11.8659 21.4143 12.2669 21.4143 13.0736V13.2566H19.7566C19.7566 13.8505 20.0057 14.1129 20.5294 14.1129C20.8039 14.1129 21.0582 14.0189 21.3376 13.8556ZM19.7667 12.9251H20.9311C20.9058 12.4053 20.6463 12.1976 20.3717 12.1976C20.0614 12.1976 19.8227 12.4303 19.7667 12.9251ZM23.9364 11.95H23.3923L22.8124 13.7714H22.7821L22.1312 11.95H21.5718L22.5482 14.4248C22.4259 14.791 22.2126 15.0585 21.8668 15.0585V15.4642C22.4513 15.4642 22.7616 15.108 23.0159 14.4248L23.9364 11.95Z" fill="#0068A3"/>
<path fill-rule="evenodd" clip-rule="evenodd" d="M11.6684 0.515991C12.3682 0.515991 13.0309 0.674612 13.6211 0.956226C13.7138 0.999033 13.8063 1.04613 13.899 1.09813L13.4887 1.45555L12.8723 0.83516L11.832 1.73839L11.214 1.08193L9.27607 2.7823L10.5185 4.11508L10.0302 4.53308L11.254 5.86788L10.7686 6.28492L12.5173 8.17953L13.5553 7.24934L14.4527 8.24615C14.2742 8.38122 14.0798 8.50833 13.8656 8.62581C13.2166 8.98603 12.4665 9.19228 11.6684 9.19228C9.21374 9.19228 7.21173 7.2433 7.21173 4.85426C7.21173 2.4647 9.21374 0.515991 11.6684 0.515991ZM10.8561 4.58003L11.9159 3.65107L12.8702 4.68289L11.8105 5.61151L10.8561 4.58003ZM12.6696 5.43385L11.6098 6.36255L12.5642 7.39438L13.624 6.46541L12.6696 5.43385ZM10.0979 2.81844L11.1576 1.88974L12.1117 2.9213L11.0519 3.85001L10.0979 2.81844ZM12.8375 1.62202L12.0426 2.31849L12.7582 3.09242L13.5531 2.3957L12.8375 1.62202ZM13.4548 5.50921L14.2499 4.81249L14.9655 5.58634L14.1707 6.28289L13.4548 5.50921ZM14.9487 6.37516L14.1541 7.07197L14.8697 7.84538L15.6645 7.14883L14.9487 6.37516ZM14.4742 3.4903L15.0041 3.0259L15.4811 3.54169L14.9515 4.006L14.4742 3.4903ZM14.3271 1.49343L13.7972 1.95773L14.2742 2.47352L14.8042 2.00921L14.3271 1.49343ZM15.1516 5.02272L15.6815 4.55832L16.1586 5.07402L15.6287 5.53841L15.1516 5.02272ZM13.57 3.17756L12.7752 3.87437L13.491 4.64778L14.2856 3.95123L13.57 3.17756Z" fill="#0068A3"/>
</svg>
