<svg width="26" height="11" viewBox="0 0 26 11" fill="none" xmlns="http://www.w3.org/2000/svg">
<path fill-rule="evenodd" clip-rule="evenodd" d="M5.27296 1.43961C4.98693 1.78223 4.52928 2.05246 4.07163 2.01386C4.01443 1.5506 4.23848 1.05838 4.50068 0.754368C4.78671 0.402097 5.28726 0.151164 5.69247 0.131861C5.74015 0.614425 5.55423 1.08734 5.27296 1.43961ZM5.68767 2.10553C5.28449 2.08204 4.91661 2.22827 4.61946 2.34638C4.42823 2.42239 4.2663 2.48676 4.14311 2.48676C4.00486 2.48676 3.83624 2.41895 3.64692 2.34282C3.39886 2.24306 3.11525 2.12901 2.81783 2.13449C2.13613 2.14414 1.50209 2.53501 1.15409 3.15752C0.439011 4.40253 0.968168 6.24592 1.65941 7.25931C1.99788 7.76117 2.40309 8.3113 2.93701 8.29199C3.17191 8.28302 3.34088 8.21044 3.51574 8.13533C3.71706 8.04886 3.9262 7.95902 4.25275 7.95902C4.56798 7.95902 4.76798 8.04652 4.95995 8.1305C5.1425 8.21036 5.31779 8.28705 5.57803 8.28234C6.13102 8.27269 6.47903 7.78048 6.81749 7.27861C7.18275 6.73998 7.34327 6.21431 7.36763 6.13452L7.36763 6.13451L7.37049 6.12528C7.3699 6.12469 7.36539 6.1226 7.35743 6.11891C7.23532 6.06233 6.30206 5.62984 6.29311 4.47009C6.28412 3.49665 7.03335 3.00345 7.15129 2.92581L7.1513 2.9258C7.15848 2.92108 7.16331 2.9179 7.1655 2.91624C6.68878 2.20204 5.9451 2.12483 5.68767 2.10553ZM9.51576 8.22926V0.706095H12.3046C13.7442 0.706095 14.7501 1.70983 14.7501 3.17682C14.7501 4.64381 13.7252 5.6572 12.2664 5.6572H10.6694V8.22926H9.51576ZM10.6693 1.69055H11.9994C13.0005 1.69055 13.5725 2.23102 13.5725 3.18167C13.5725 4.13232 13.0005 4.67761 11.9946 4.67761H10.6693V1.69055ZM18.5591 7.32691C18.254 7.91563 17.5819 8.28721 16.8573 8.28721C15.7847 8.28721 15.0362 7.64057 15.0362 6.6658C15.0362 5.70067 15.7608 5.14572 17.1004 5.06369L18.5401 4.97682V4.56182C18.5401 3.94896 18.1444 3.616 17.4389 3.616C16.8573 3.616 16.433 3.92001 16.3472 4.38327H15.3079C15.3413 3.40849 16.2471 2.69913 17.4722 2.69913C18.7927 2.69913 19.6508 3.39884 19.6508 4.48461V8.2293H18.583V7.32691H18.5591ZM17.1671 7.39443C16.5521 7.39443 16.1612 7.09524 16.1612 6.63681C16.1612 6.1639 16.5378 5.88884 17.2576 5.84541L18.54 5.76337V6.18803C18.54 6.89257 17.9489 7.39443 17.1671 7.39443ZM23.1928 8.52366C22.7304 9.84106 22.2012 10.2754 21.0762 10.2754C20.9904 10.2754 20.7043 10.2657 20.6376 10.2464V9.34402C20.7091 9.35367 20.8855 9.36332 20.9761 9.36332C21.4862 9.36332 21.7722 9.14617 21.9486 8.58157L22.0534 8.2486L20.0989 2.77151H21.305L22.6636 7.21591H22.6875L24.0461 2.77151H25.2189L23.1928 8.52366Z" fill="#282739"/>
</svg>
