<svg width="0" height="0" class="hidden">
<symbol  viewBox="0 0 12 13"  xmlns="http://www.w3.org/2000/svg" id="viber">
<g clip-path="url(#clip0_1_15970)">
<path d="M6.40796 7.27975C6.27072 7.41708 6.04815 7.41708 5.91082 7.27975L4.31323 5.68216C4.24731 5.61624 4.21023 5.52679 4.21023 5.43359C4.21023 5.3403 4.24731 5.25095 4.31323 5.18494L4.59723 4.90103L3.76309 4.06689L3.07974 4.75024C2.84976 4.98022 2.84985 5.3544 3.07974 5.58438L6.0086 8.51343C6.11929 8.62411 6.26742 8.685 6.42572 8.685C6.58401 8.685 6.73214 8.62402 6.84283 8.51334L7.52618 7.83008L6.69204 6.99585L6.40796 7.27975Z" />
<path d="M11.4957 4.73541C11.4957 3.60831 11.0541 2.54593 10.2519 1.74384C9.4498 0.941742 8.38742 0.5 7.26041 0.5H4.75085C4.75085 0.5 4.75085 0.5 4.75076 0.5C3.62384 0.5 2.56146 0.941742 1.75946 1.74374C0.957367 2.54584 0.515625 3.60831 0.515625 4.73532V6.70792C0.515625 7.58069 0.78186 8.42032 1.28558 9.13599C1.72998 9.76733 2.32764 10.2604 3.02444 10.5732V11.7062C3.02444 12.2921 3.35248 12.4999 3.63336 12.5C3.83405 12.5 4.03482 12.4009 4.23019 12.2057L5.49243 10.9432H7.2605C8.38751 10.9432 9.44989 10.5015 10.252 9.6994C11.0541 8.89731 11.4958 7.83493 11.4958 6.70792L11.4957 4.73541ZM8.27197 8.07864L7.33997 9.01056C7.09644 9.25409 6.77179 9.38803 6.42572 9.38803C6.07965 9.38803 5.755 9.254 5.51147 9.01056L2.58252 6.08151C2.07852 5.57733 2.07852 4.75711 2.58252 4.25302L3.51453 3.32111C3.58044 3.2551 3.6698 3.21811 3.76309 3.21811C3.85629 3.21811 3.94574 3.2551 4.01166 3.32111L5.34302 4.65247C5.40894 4.71838 5.44592 4.80783 5.44592 4.90103C5.44592 4.99423 5.40894 5.08368 5.34293 5.1496L5.05902 5.4335L6.15948 6.53397L6.44348 6.24997C6.58081 6.11273 6.80338 6.11273 6.94061 6.25006L8.27197 7.58142C8.33798 7.64734 8.37497 7.73679 8.37497 7.82999C8.37497 7.92328 8.33798 8.01273 8.27197 8.07864ZM5.73944 3.91299C5.73944 3.7189 5.89682 3.56143 6.091 3.56143C7.30911 3.56143 8.30017 4.5524 8.30017 5.77042C8.30017 5.9646 8.14279 6.12198 7.94861 6.12198C7.75452 6.12198 7.59705 5.9646 7.59705 5.77042C7.59705 4.94012 6.92148 4.26456 6.091 4.26456C5.89682 4.26456 5.73944 4.10718 5.73944 3.91299ZM9.45474 6.12216C9.26056 6.12216 9.10318 5.96469 9.10318 5.7706C9.10327 4.96594 8.78989 4.20953 8.22098 3.64053C7.65198 3.07162 6.89557 2.75824 6.09091 2.75824C5.89682 2.75824 5.73935 2.60086 5.73935 2.40668C5.73935 2.21259 5.89682 2.05511 6.09091 2.05511C7.08334 2.05511 8.01636 2.44165 8.71811 3.1434C9.41995 3.84515 9.8064 4.77817 9.8063 5.7706C9.8063 5.96469 9.64893 6.12216 9.45474 6.12216Z" />
</g>
<defs>
<clipPath id="clip0_1_15970">
<rect width="12" height="12" fill="white" transform="translate(0 0.5)"/>
</clipPath>
</defs>
</symbol>
<symbol  viewBox="0 0 13 13"  xmlns="http://www.w3.org/2000/svg" id="whatsapp">
<g clip-path="url(#clip0_1_15973)">
<path d="M6.49685 0.503787C3.18509 0.50449 0.500956 3.18978 0.501659 6.50153C0.501893 7.64828 0.830971 8.7709 1.44982 9.73633L0.516884 12.1569C0.467202 12.2856 0.531289 12.4303 0.660026 12.48C0.688813 12.4911 0.719381 12.4968 0.75023 12.4967C0.778854 12.4969 0.807267 12.492 0.834181 12.4822L3.33271 11.5902C6.14383 13.341 9.842 12.4815 11.5928 9.67033C13.3436 6.85918 12.484 3.16104 9.67286 1.41026C8.71994 0.81675 7.61952 0.502686 6.49685 0.503787Z" />
<path d="M9.35557 7.52445C9.35557 7.52445 8.74344 7.22462 8.36016 7.02475C7.92642 6.80138 7.41672 7.21963 7.17686 7.4575C6.80356 7.3141 6.46261 7.09767 6.17396 6.82087C5.89711 6.53227 5.68068 6.19131 5.53732 5.81796C5.77519 5.57761 6.19244 5.06841 5.97008 4.63467C5.77269 4.2509 5.47038 3.63877 5.47038 3.63877C5.42796 3.55458 5.34178 3.50144 5.2475 3.50134H4.74781C4.02008 3.62703 3.49097 4.262 3.49855 5.00046C3.49855 5.78498 4.43749 7.29211 5.07063 7.92572C5.70377 8.55933 7.21087 9.49779 7.99589 9.49779C8.73435 9.50538 9.36932 8.97624 9.49501 8.24854V7.74884C9.49508 7.65356 9.44102 7.56654 9.35557 7.52445Z" fill="#F7F7F7"/>
</g>
<defs>
<clipPath id="clip0_1_15973">
<rect width="12" height="12" fill="white" transform="translate(0.5 0.5)"/>
</clipPath>
</defs>
</symbol>
<symbol  viewBox="0 0 12 11"  xmlns="http://www.w3.org/2000/svg" id="telegram">
<path d="M4.70847 7.09058L4.50997 9.88258C4.79397 9.88258 4.91697 9.76058 5.06447 9.61408L6.39597 8.34158L9.15497 10.3621C9.66097 10.6441 10.0175 10.4956 10.154 9.89658L11.965 1.41058L11.9655 1.41008C12.126 0.662081 11.695 0.369581 11.202 0.553081L0.556967 4.62858C-0.169533 4.91058 -0.158533 5.31558 0.433467 5.49908L3.15497 6.34558L9.47647 2.39008C9.77397 2.19308 10.0445 2.30208 9.82197 2.49908L4.70847 7.09058Z" />
</symbol>
<symbol  viewBox="0 0 16 16" fill="none" xmlns="http://www.w3.org/2000/svg" id='glass'>
<path d="M15.9519 14.8499L10.758 9.65596C11.564 8.61396 11.9999 7.33997 11.9999 5.99997C11.9999 4.39598 11.374 2.89199 10.242 1.75799C9.10996 0.623997 7.60197 0 5.99997 0C4.39798 0 2.88999 0.625997 1.75799 1.75799C0.623997 2.88999 0 4.39598 0 5.99997C0 7.60197 0.625997 9.10996 1.75799 10.242C2.88999 11.376 4.39598 11.9999 5.99997 11.9999C7.33997 11.9999 8.61196 11.564 9.65396 10.76L14.8479 15.9519C14.8632 15.9672 14.8812 15.9793 14.9012 15.9875C14.9211 15.9958 14.9424 16 14.9639 16C14.9855 16 15.0068 15.9958 15.0267 15.9875C15.0466 15.9793 15.0647 15.9672 15.0799 15.9519L15.9519 15.0819C15.9672 15.0667 15.9793 15.0486 15.9875 15.0287C15.9958 15.0088 16 14.9875 16 14.9659C16 14.9444 15.9958 14.9231 15.9875 14.9032C15.9793 14.8833 15.9672 14.8652 15.9519 14.8499ZM9.16796 9.16796C8.31996 10.014 7.19597 10.48 5.99997 10.48C4.80398 10.48 3.67998 10.014 2.83199 9.16796C1.98599 8.31996 1.51999 7.19597 1.51999 5.99997C1.51999 4.80398 1.98599 3.67798 2.83199 2.83199C3.67998 1.98599 4.80398 1.51999 5.99997 1.51999C7.19597 1.51999 8.32196 1.98399 9.16796 2.83199C10.014 3.67998 10.48 4.80398 10.48 5.99997C10.48 7.19597 10.014 8.32196 9.16796 9.16796Z" fill="white"/>
</symbol>
<symbol  viewBox="0 0 20 20" fill="none" xmlns="http://www.w3.org/2000/svg" >
<mask id="path-1-inside-1_1_15994" fill="white">
<path d="M19.4141 11.2639H18.7766L16.7349 6.32553C17.0208 6.28663 17.2413 6.04217 17.2413 5.74561C17.2413 5.42202 16.979 5.15967 16.6554 5.15967H11.6177C11.3769 4.49088 10.7363 4.01135 9.98559 4.01135C9.23488 4.01135 8.59422 4.49092 8.3534 5.15967H3.34465C3.02105 5.15967 2.75871 5.42202 2.75871 5.74561C2.75871 6.04217 2.97926 6.28663 3.26512 6.32553L1.22344 11.2639H0.585938C0.262344 11.2639 0 11.5263 0 11.8499C0 14.132 1.85668 15.9887 4.13883 15.9887C6.42098 15.9887 8.27766 14.132 8.27766 11.8499C8.27766 11.5263 8.01531 11.2639 7.69172 11.2639H7.05418L5.01504 6.33155H8.3534C8.59422 7.00034 9.23484 7.47987 9.98559 7.47987C10.7363 7.47987 11.3769 7.00034 11.6177 6.33155H14.985L12.9459 11.2639H12.3083C11.9847 11.2639 11.7224 11.5263 11.7224 11.8499C11.7224 14.132 13.5791 15.9887 15.8612 15.9887C18.1434 15.9887 20 14.132 20 11.8499C20 11.5263 19.7377 11.2639 19.4141 11.2639ZM4.13883 14.8168C2.70332 14.8168 1.5027 13.7922 1.22996 12.4358H7.0477C6.77496 13.7922 5.57434 14.8168 4.13883 14.8168ZM5.78613 11.2639H2.49152L4.13883 7.2794L5.78613 11.2639ZM9.98555 6.30799C9.67543 6.30799 9.42316 6.05573 9.42316 5.74561C9.42316 5.43549 9.67543 5.18323 9.98555 5.18323C10.2956 5.18323 10.5479 5.43549 10.5479 5.74561C10.5479 6.05573 10.2957 6.30799 9.98555 6.30799ZM15.8612 7.2794L17.5085 11.2639H14.2139L15.8612 7.2794ZM15.8612 14.8168C14.4257 14.8168 13.225 13.7922 12.9523 12.4358H18.77C18.4973 13.7922 17.2966 14.8168 15.8612 14.8168Z"/>
</mask>
<path d="M19.4141 11.2639H18.7766L16.7349 6.32553C17.0208 6.28663 17.2413 6.04217 17.2413 5.74561C17.2413 5.42202 16.979 5.15967 16.6554 5.15967H11.6177C11.3769 4.49088 10.7363 4.01135 9.98559 4.01135C9.23488 4.01135 8.59422 4.49092 8.3534 5.15967H3.34465C3.02105 5.15967 2.75871 5.42202 2.75871 5.74561C2.75871 6.04217 2.97926 6.28663 3.26512 6.32553L1.22344 11.2639H0.585938C0.262344 11.2639 0 11.5263 0 11.8499C0 14.132 1.85668 15.9887 4.13883 15.9887C6.42098 15.9887 8.27766 14.132 8.27766 11.8499C8.27766 11.5263 8.01531 11.2639 7.69172 11.2639H7.05418L5.01504 6.33155H8.3534C8.59422 7.00034 9.23484 7.47987 9.98559 7.47987C10.7363 7.47987 11.3769 7.00034 11.6177 6.33155H14.985L12.9459 11.2639H12.3083C11.9847 11.2639 11.7224 11.5263 11.7224 11.8499C11.7224 14.132 13.5791 15.9887 15.8612 15.9887C18.1434 15.9887 20 14.132 20 11.8499C20 11.5263 19.7377 11.2639 19.4141 11.2639ZM4.13883 14.8168C2.70332 14.8168 1.5027 13.7922 1.22996 12.4358H7.0477C6.77496 13.7922 5.57434 14.8168 4.13883 14.8168ZM5.78613 11.2639H2.49152L4.13883 7.2794L5.78613 11.2639ZM9.98555 6.30799C9.67543 6.30799 9.42316 6.05573 9.42316 5.74561C9.42316 5.43549 9.67543 5.18323 9.98555 5.18323C10.2956 5.18323 10.5479 5.43549 10.5479 5.74561C10.5479 6.05573 10.2957 6.30799 9.98555 6.30799ZM15.8612 7.2794L17.5085 11.2639H14.2139L15.8612 7.2794ZM15.8612 14.8168C14.4257 14.8168 13.225 13.7922 12.9523 12.4358H18.77C18.4973 13.7922 17.2966 14.8168 15.8612 14.8168Z" />
<path d="M18.7766 11.2639L15.08 12.7922L16.1019 15.2639H18.7766V11.2639ZM16.7349 6.32553L16.1956 2.36206L11.0571 3.06133L13.0384 7.85377L16.7349 6.32553ZM11.6177 5.15967L7.85429 6.51483L8.80665 9.15967H11.6177V5.15967ZM8.3534 5.15967V9.15967H11.1644L12.1168 6.5149L8.3534 5.15967ZM3.26512 6.32553L6.96166 7.85379L8.94296 3.06142L3.80455 2.36207L3.26512 6.32553ZM1.22344 11.2639V15.2639H3.89809L4.91998 12.7922L1.22344 11.2639ZM7.05418 11.2639L3.35762 12.7922L4.3795 15.2639H7.05418V11.2639ZM5.01504 6.33155V2.33155H-0.966991L1.31848 7.85977L5.01504 6.33155ZM8.3534 6.33155L12.1168 4.97639L11.1645 2.33155H8.3534V6.33155ZM11.6177 6.33155V2.33155H8.80665L7.85429 4.97639L11.6177 6.33155ZM14.985 6.33155L18.6816 7.85977L20.967 2.33155H14.985V6.33155ZM12.9459 11.2639V15.2639H15.6205L16.6424 12.7922L12.9459 11.2639ZM1.22996 12.4358V8.43581H-3.65441L-2.69155 13.2243L1.22996 12.4358ZM7.0477 12.4358L10.9692 13.2243L11.9321 8.43581H7.0477V12.4358ZM5.78613 11.2639V15.2639H11.7682L9.48268 9.73569L5.78613 11.2639ZM2.49152 11.2639L-1.20502 9.73568L-3.49054 15.2639H2.49152V11.2639ZM4.13883 7.2794L7.83538 5.75115L4.13883 -3.19012L0.44228 5.75115L4.13883 7.2794ZM15.8612 7.2794L19.5577 5.75115L15.8612 -3.19012L12.1646 5.75115L15.8612 7.2794ZM17.5085 11.2639V15.2639H23.4905L21.205 9.73569L17.5085 11.2639ZM14.2139 11.2639L10.5173 9.73569L8.2318 15.2639H14.2139V11.2639ZM12.9523 12.4358V8.43581H8.06793L9.0308 13.2243L12.9523 12.4358ZM18.77 12.4358L22.6915 13.2243L23.6544 8.43581H18.77V12.4358ZM19.4141 7.26393H18.7766V15.2639H19.4141V7.26393ZM22.4731 9.7357L20.4315 4.7973L13.0384 7.85377L15.08 12.7922L22.4731 9.7357ZM17.2743 10.289C19.5083 9.98499 21.2413 8.07734 21.2413 5.74561H13.2413C13.2413 4.007 14.5334 2.58826 16.1956 2.36206L17.2743 10.289ZM21.2413 5.74561C21.2413 3.21288 19.1881 1.15967 16.6554 1.15967V9.15967C14.7698 9.15967 13.2413 7.63116 13.2413 5.74561H21.2413ZM16.6554 1.15967H11.6177V9.15967H16.6554V1.15967ZM15.3812 3.80451C14.5889 1.60414 12.4809 0.0113525 9.98559 0.0113525V8.01135C8.99163 8.01135 8.16497 7.37763 7.85429 6.51483L15.3812 3.80451ZM9.98559 0.0113525C7.49022 0.0113525 5.38231 1.60417 4.58997 3.80444L12.1168 6.5149C11.8061 7.37768 10.9795 8.01135 9.98559 8.01135V0.0113525ZM8.3534 1.15967H3.34465V9.15967H8.3534V1.15967ZM3.34465 1.15967C0.811916 1.15967 -1.24129 3.21288 -1.24129 5.74561H6.75871C6.75871 7.63116 5.23019 9.15967 3.34465 9.15967V1.15967ZM-1.24129 5.74561C-1.24129 8.07758 0.492035 9.98499 2.72568 10.289L3.80455 2.36207C5.46648 2.58827 6.75871 4.00677 6.75871 5.74561H-1.24129ZM-0.431425 4.79727L-2.4731 9.73567L4.91998 12.7922L6.96166 7.85379L-0.431425 4.79727ZM1.22344 7.26393H0.585938V15.2639H1.22344V7.26393ZM0.585938 7.26393C-1.9468 7.26393 -4 9.31713 -4 11.8499H4C4 13.7354 2.47148 15.2639 0.585938 15.2639V7.26393ZM-4 11.8499C-4 16.3412 -0.352459 19.9887 4.13883 19.9887V11.9887C4.11514 11.9887 4.10112 11.9847 4.08983 11.9799C4.07582 11.9739 4.05865 11.9633 4.04204 11.9467C4.02542 11.93 4.01476 11.9129 4.00882 11.8989C4.00404 11.8876 4 11.8736 4 11.8499H-4ZM4.13883 19.9887C8.63012 19.9887 12.2777 16.3412 12.2777 11.8499H4.27766C4.27766 11.8736 4.27362 11.8876 4.26883 11.8989C4.2629 11.9129 4.25223 11.93 4.23562 11.9467C4.21901 11.9633 4.20183 11.9739 4.18783 11.9799C4.17654 11.9847 4.16251 11.9887 4.13883 11.9887V19.9887ZM12.2777 11.8499C12.2777 9.31713 10.2245 7.26393 7.69172 7.26393V15.2639C5.80617 15.2639 4.27766 13.7354 4.27766 11.8499H12.2777ZM7.69172 7.26393H7.05418V15.2639H7.69172V7.26393ZM10.7507 9.7357L8.71159 4.80332L1.31848 7.85977L3.35762 12.7922L10.7507 9.7357ZM5.01504 10.3315H8.3534V2.33155H5.01504V10.3315ZM4.58995 7.68671C5.38229 9.88714 7.49024 11.4799 9.98559 11.4799V3.47987C10.9795 3.47987 11.8061 4.11354 12.1168 4.97639L4.58995 7.68671ZM9.98559 11.4799C12.4809 11.4799 14.5889 9.88709 15.3812 7.68671L7.85429 4.97639C8.16497 4.11359 8.99163 3.47987 9.98559 3.47987V11.4799ZM11.6177 10.3315H14.985V2.33155H11.6177V10.3315ZM11.2884 4.80332L9.2493 9.7357L16.6424 12.7922L18.6816 7.85977L11.2884 4.80332ZM12.9459 7.26393H12.3083V15.2639H12.9459V7.26393ZM12.3083 7.26393C9.77559 7.26393 7.72238 9.31713 7.72238 11.8499H15.7224C15.7224 13.7354 14.1939 15.2639 12.3083 15.2639V7.26393ZM7.72238 11.8499C7.72238 16.3412 11.3699 19.9887 15.8612 19.9887V11.9887C15.8375 11.9887 15.8235 11.9847 15.8122 11.9799C15.7982 11.9739 15.781 11.9633 15.7644 11.9467C15.7478 11.93 15.7371 11.9129 15.7312 11.8989C15.7264 11.8876 15.7224 11.8736 15.7224 11.8499H7.72238ZM15.8612 19.9887C20.3525 19.9887 24 16.3411 24 11.8499H16C16 11.8736 15.996 11.8876 15.9912 11.8989C15.9852 11.9129 15.9746 11.9301 15.958 11.9467C15.9414 11.9633 15.9242 11.9739 15.9102 11.9799C15.8989 11.9847 15.8849 11.9887 15.8612 11.9887V19.9887ZM24 11.8499C24 9.31713 21.9468 7.26393 19.4141 7.26393V15.2639C17.5285 15.2639 16 13.7354 16 11.8499H24ZM4.13883 10.8168C4.64856 10.8168 5.05659 11.1754 5.15147 11.6473L-2.69155 13.2243C-2.0512 16.4089 0.758084 18.8168 4.13883 18.8168V10.8168ZM1.22996 16.4358H7.0477V8.43581H1.22996V16.4358ZM3.12619 11.6473C3.22107 11.1754 3.6291 10.8168 4.13883 10.8168V18.8168C7.51957 18.8168 10.3289 16.4089 10.9692 13.2243L3.12619 11.6473ZM5.78613 7.26393H2.49152V15.2639H5.78613V7.26393ZM6.18807 12.7922L7.83538 8.80764L0.44228 5.75115L-1.20502 9.73568L6.18807 12.7922ZM0.44228 8.80764L2.08958 12.7922L9.48268 9.73569L7.83538 5.75115L0.44228 8.80764ZM9.98555 2.30799C11.8846 2.30799 13.4232 3.84659 13.4232 5.74561H5.42316C5.42316 8.26487 7.46629 10.308 9.98555 10.308V2.30799ZM13.4232 5.74561C13.4232 7.64463 11.8846 9.18323 9.98555 9.18323V1.18323C7.46629 1.18323 5.42316 3.22636 5.42316 5.74561H13.4232ZM9.98555 9.18323C8.08667 9.18323 6.54793 7.64481 6.54793 5.74561H14.5479C14.5479 3.22618 12.5046 1.18323 9.98555 1.18323V9.18323ZM6.54793 5.74561C6.54793 3.84659 8.08653 2.30799 9.98555 2.30799V10.308C12.5048 10.308 14.5479 8.26487 14.5479 5.74561H6.54793ZM12.1646 8.80764L13.8119 12.7922L21.205 9.73569L19.5577 5.75115L12.1646 8.80764ZM17.5085 7.26393H14.2139V15.2639H17.5085V7.26393ZM17.9104 12.7922L19.5577 8.80764L12.1646 5.75115L10.5173 9.73569L17.9104 12.7922ZM15.8612 10.8168C16.3709 10.8168 16.7789 11.1754 16.8738 11.6473L9.0308 13.2243C9.67114 16.4089 12.4804 18.8168 15.8612 18.8168V10.8168ZM12.9523 16.4358H18.77V8.43581H12.9523V16.4358ZM14.8485 11.6473C14.9434 11.1754 15.3514 10.8168 15.8612 10.8168V18.8168C19.2418 18.8168 22.0512 16.4089 22.6915 13.2243L14.8485 11.6473Z" fill="#282739" mask="url(#path-1-inside-1_1_15994)"/>
</symbol>
<symbol  viewBox="0 0 20 20"  xmlns="http://www.w3.org/2000/svg" id='scales'>
<path d="M19.4141 11.2639H18.7766L16.7349 6.32553C17.0208 6.28663 17.2413 6.04217 17.2413 5.74561C17.2413 5.42202 16.979 5.15967 16.6554 5.15967H11.6177C11.3769 4.49088 10.7363 4.01135 9.98559 4.01135C9.23488 4.01135 8.59422 4.49092 8.3534 5.15967H3.34465C3.02105 5.15967 2.75871 5.42202 2.75871 5.74561C2.75871 6.04217 2.97926 6.28663 3.26512 6.32553L1.22344 11.2639H0.585938C0.262344 11.2639 0 11.5263 0 11.8499C0 14.132 1.85668 15.9887 4.13883 15.9887C6.42098 15.9887 8.27766 14.132 8.27766 11.8499C8.27766 11.5263 8.01531 11.2639 7.69172 11.2639H7.05418L5.01504 6.33155H8.3534C8.59422 7.00034 9.23484 7.47987 9.98559 7.47987C10.7363 7.47987 11.3769 7.00034 11.6177 6.33155H14.985L12.9459 11.2639H12.3083C11.9847 11.2639 11.7224 11.5263 11.7224 11.8499C11.7224 14.132 13.5791 15.9887 15.8612 15.9887C18.1434 15.9887 20 14.132 20 11.8499C20 11.5263 19.7377 11.2639 19.4141 11.2639ZM4.13883 14.8168C2.70332 14.8168 1.5027 13.7922 1.22996 12.4358H7.0477C6.77496 13.7922 5.57434 14.8168 4.13883 14.8168ZM5.78613 11.2639H2.49152L4.13883 7.2794L5.78613 11.2639ZM9.98555 6.30799C9.67543 6.30799 9.42316 6.05573 9.42316 5.74561C9.42316 5.43549 9.67543 5.18323 9.98555 5.18323C10.2956 5.18323 10.5479 5.43549 10.5479 5.74561C10.5479 6.05573 10.2957 6.30799 9.98555 6.30799ZM15.8612 7.2794L17.5085 11.2639H14.2139L15.8612 7.2794ZM15.8612 14.8168C14.4257 14.8168 13.225 13.7922 12.9523 12.4358H18.77C18.4973 13.7922 17.2966 14.8168 15.8612 14.8168Z"/>
</symbol>
<symbol  viewBox="0 0 18 16"  xmlns="http://www.w3.org/2000/svg" id='heard'>
<path d="M16.9935 3.51496C16.7329 2.90541 16.357 2.35303 15.887 1.88876C15.4167 1.4231 14.8621 
1.05305 14.2535 0.798733C13.6224 0.53397 12.9455 0.39845 12.2622 0.400038C11.3034 0.400038 10.3681 0.66518 9.55519 1.166C9.36072 1.28581 9.17598 1.4174 9.00096 1.56077C8.82594 1.4174 8.6412 1.28581 8.44673 1.166C7.63386 0.66518 6.69847 0.400038 5.73975 0.400038C5.0494 0.400038 4.38043 0.533591 3.74841 0.798733C3.13779 1.05405 2.58745 1.42132 2.11489 1.88876C1.64428 2.35251 1.26834 2.90501 1.00838 3.51496C0.73807 4.14934 0.599998 4.823 0.599998 5.51629C0.599998 6.17031 0.732236 6.85182 0.994766 7.54512C1.21451 8.1245 1.52955 8.72549 1.9321 9.33237C2.56995 10.2928 3.44699 11.2944 4.536 12.3098C6.34066 13.993 8.1278 15.1557 8.20365 15.2028L8.66453 15.5013C8.86872 15.6329 9.13125 15.6329 9.33544 15.5013L9.79633 15.2028C9.87217 15.1537 11.6574 13.993 13.464 12.3098C14.553 11.2944 15.43 10.2928 16.0679 9.33237C16.4704 8.72549 16.7874 8.1245 17.0052 7.54512C17.2677 6.85182 17.4 6.17031 17.4 5.51629C17.4019 4.823 17.2639 4.14934 16.9935 3.51496ZM9.00096 13.9478C9.00096 13.9478 2.07795 9.46789 2.07795 5.51629C2.07795 3.51496 3.7173 1.89269 5.73975 1.89269C7.1613 1.89269 8.39422 2.69401 9.00096 3.86456C9.6077 2.69401 10.8406 1.89269 12.2622 1.89269C14.2846 1.89269 15.924 3.51496 15.924 5.51629C15.924 9.46789 9.00096 13.9478 9.00096 13.9478Z"/>
</symbol>
<symbol  viewBox="0 0 20 18"  xmlns="http://www.w3.org/2000/svg" id='cart'>
<path d="M19.1523 6.25427H15.0031L12.6756 0.924855C12.5461 0.628332 12.2007 0.492824 11.9042 0.622395C11.6076 0.751887 11.4722 1.09732 11.6017 1.39388L13.7244 6.25431H6.27561L8.39827 1.39388C8.52776 1.09732 8.39237 0.751926 8.09581 0.622395C7.79929 0.492824 7.45382 0.628254 7.32436 0.924855L4.99686 6.25427H0.847685C0.304911 6.25427 -0.0979012 6.74564 0.0208488 7.26286L2.20581 16.7797C2.29257 17.1576 2.63608 17.4261 3.03265 17.4261H16.9673C17.3639 17.4261 17.7074 17.1576 17.7942 16.7797L19.9791 7.26286C20.0979 6.74568 19.695 6.25427 19.1523 6.25427ZM5.1071 8.0513C5.02882 8.0513 4.94925 8.03552 4.87288 8.00216C4.57632 7.87267 4.44089 7.52728 4.57042 7.23068L5.01057 6.22278H6.28933L5.64432 7.69966C5.54819 7.91993 5.33296 8.0513 5.1071 8.0513ZM7.0703 14.3011C7.0703 14.6247 6.80796 14.8871 6.48436 14.8871C6.16077 14.8871 5.89843 14.6247 5.89843 14.3011V10.0043C5.89843 9.68068 6.16077 9.41833 6.48436 9.41833C6.80796 9.41833 7.0703 9.68068 7.0703 10.0043V14.3011ZM10.5859 14.3011C10.5859 14.6247 10.3236 14.8871 9.99999 14.8871C9.6764 14.8871 9.41405 14.6247 9.41405 14.3011V10.0043C9.41405 9.68068 9.6764 9.41833 9.99999 9.41833C10.3236 9.41833 10.5859 9.68068 10.5859 10.0043V14.3011ZM14.1016 14.3011C14.1016 14.6247 13.8392 14.8871 13.5156 14.8871C13.192 14.8871 12.9297 14.6247 12.9297 14.3011V10.0043C12.9297 9.68068 13.192 9.41833 13.5156 9.41833C13.8392 9.41833 14.1016 9.68068 14.1016 10.0043V14.3011ZM15.1271 8.00216C15.0507 8.03552 14.9712 8.0513 14.8929 8.0513C14.667 8.0513 14.4518 7.91997 14.3556 7.6997L13.7106 6.22282H14.9894L15.4295 7.23071C15.5591 7.52728 15.4236 7.87267 15.1271 8.00216Z"/>
</symbol>
<symbol  viewBox="0 0 113 23" fill="none" xmlns="http://www.w3.org/2000/svg" id="logo">
<path d="M0.22 0.999999V22H5.47V0.999999H0.22ZM12.61 0.999999L4 10.99L12.85 22H19L10.03 10.84L18.55 0.999999H12.61ZM21.0466 0.999999V15.1C21.0466 16.42 21.2566 17.57 21.6766 18.55C22.1166 19.53 22.7166 20.34 23.4766 20.98C24.2566 21.6 25.1566 22.07 26.1766 22.39C27.1966 22.71 28.2966 22.87 29.4766 22.87C30.6566 22.87 31.7566 22.71 32.7766 22.39C33.8166 22.07 34.7166 21.6 35.4766 20.98C36.2566 20.34 36.8566 19.53 37.2766 18.55C37.7166 17.57 37.9366 16.42 37.9366 15.1V0.999999H32.8666V14.74C32.8666 15.8 32.5866 16.66 32.0266 17.32C31.4666 17.98 30.6166 18.31 29.4766 18.31C28.3566 18.31 27.5166 17.98 26.9566 17.32C26.3966 16.66 26.1166 15.8 26.1166 14.74V0.999999H21.0466ZM52.6417 14.41H58.2217C58.0417 14.95 57.7917 15.46 57.4717 15.94C57.1717 16.4 56.8017 16.81 56.3617 17.17C55.9217 17.51 55.3917 17.78 54.7717 17.98C54.1517 18.16 53.4617 18.25 52.7017 18.25C51.4617 18.25 50.3617 17.98 49.4017 17.44C48.4617 16.88 47.7117 16.1 47.1517 15.1C46.6117 14.08 46.3417 12.88 46.3417 11.5C46.3417 10.1 46.6217 8.92 47.1817 7.96C47.7617 6.98 48.5317 6.23 49.4917 5.71C50.4517 5.19 51.5217 4.93 52.7017 4.93C53.9217 4.93 54.9317 5.21 55.7317 5.77C56.5517 6.31 57.2017 7 57.6817 7.84L62.1817 5.5C61.5217 4.52 60.7317 3.66 59.8117 2.92C58.9117 2.16 57.8717 1.57 56.6917 1.15C55.5117 0.729999 54.1817 0.519999 52.7017 0.519999C51.0417 0.519999 49.5017 0.779999 48.0817 1.3C46.6617 1.82 45.4217 2.56 44.3617 3.52C43.3017 4.48 42.4817 5.64 41.9017 7C41.3217 8.34 41.0317 9.84 41.0317 11.5C41.0317 13.16 41.3117 14.68 41.8717 16.06C42.4517 17.42 43.2517 18.6 44.2717 19.6C45.2917 20.58 46.5017 21.34 47.9017 21.88C49.3017 22.4 50.8417 22.66 52.5217 22.66C54.3017 22.66 55.8817 22.35 57.2617 21.73C58.6417 21.09 59.7917 20.21 60.7117 19.09C61.6317 17.97 62.3117 16.68 62.7517 15.22C63.1917 13.76 63.3617 12.19 63.2617 10.51H52.6417V14.41ZM70.8353 11.5C70.8353 10.26 71.0753 9.17 71.5553 8.23C72.0553 7.27 72.7453 6.52 73.6253 5.98C74.5253 5.44 75.5753 5.17 76.7753 5.17C77.9953 5.17 79.0453 5.44 79.9253 5.98C80.8053 6.52 81.4853 7.27 81.9653 8.23C82.4453 9.17 82.6853 10.26 82.6853 11.5C82.6853 12.74 82.4353 13.84 81.9353 14.8C81.4553 15.74 80.7653 16.48 79.8653 17.02C78.9853 17.56 77.9553 17.83 76.7753 17.83C75.5753 17.83 74.5253 17.56 73.6253 17.02C72.7453 16.48 72.0553 15.74 71.5553 14.8C71.0753 13.84 70.8353 12.74 70.8353 11.5ZM65.4653 11.5C65.4653 13.12 65.7353 14.61 66.2753 15.97C66.8353 17.33 67.6153 18.51 68.6153 19.51C69.6353 20.51 70.8353 21.29 72.2153 21.85C73.5953 22.39 75.1153 22.66 76.7753 22.66C78.4153 22.66 79.9253 22.39 81.3053 21.85C82.6853 21.29 83.8753 20.51 84.8753 19.51C85.8953 18.51 86.6753 17.33 87.2153 15.97C87.7753 14.61 88.0553 13.12 88.0553 11.5C88.0553 9.88 87.7753 8.4 87.2153 7.06C86.6553 5.72 85.8653 4.56 84.8453 3.58C83.8253 2.6 82.6253 1.85 81.2453 1.33C79.8853 0.789999 78.3953 0.519999 76.7753 0.519999C75.1753 0.519999 73.6853 0.789999 72.3053 1.33C70.9253 1.85 69.7253 2.6 68.7053 3.58C67.6853 4.56 66.8853 5.72 66.3053 7.06C65.7453 8.4 65.4653 9.88 65.4653 11.5ZM95.474 11.5C95.474 10.26 95.714 9.17 96.194 8.23C96.694 7.27 97.384 6.52 98.264 5.98C99.164 5.44 100.214 5.17 101.414 5.17C102.634 5.17 103.684 5.44 104.564 5.98C105.444 6.52 106.124 7.27 106.604 8.23C107.084 9.17 107.324 10.26 107.324 11.5C107.324 12.74 107.074 13.84 106.574 14.8C106.094 15.74 105.404 16.48 104.504 17.02C103.624 17.56 102.594 17.83 101.414 17.83C100.214 17.83 99.164 17.56 98.264 17.02C97.384 16.48 96.694 15.74 96.194 14.8C95.714 13.84 95.474 12.74 95.474 11.5ZM90.104 11.5C90.104 13.12 90.374 14.61 90.914 15.97C91.474 17.33 92.254 18.51 93.254 19.51C94.274 20.51 95.474 21.29 96.854 21.85C98.234 22.39 99.754 22.66 101.414 22.66C103.054 22.66 104.564 22.39 105.944 21.85C107.324 21.29 108.514 20.51 109.514 19.51C110.534 18.51 111.314 17.33 111.854 15.97C112.414 14.61 112.694 13.12 112.694 11.5C112.694 9.88 112.414 8.4 111.854 7.06C111.294 5.72 110.504 4.56 109.484 3.58C108.464 2.6 107.264 1.85 105.884 1.33C104.524 0.789999 103.034 0.519999 101.414 0.519999C99.814 0.519999 98.324 0.789999 96.944 1.33C95.564 1.85 94.364 2.6 93.344 3.58C92.324 4.56 91.524 5.72 90.944 7.06C90.384 8.4 90.104 9.88 90.104 11.5Z" fill="#282739"/>
</symbol>
<symbol  viewBox="0 0 13 15" fill="none" xmlns="http://www.w3.org/2000/svg" id="position">
<path d="M10.9468 1.84193C9.75908 0.654143 8.1798 0 6.50008 0C4.82034 0 3.24111 0.654114 2.05327 1.84193C0.865508 3.02969 0.211365 4.60886 0.211365 6.2886C0.211365 7.96834 0.865508 9.54757 2.05327 10.7354L6.18936 14.8713C6.27517 14.9571 6.38764 15 6.50008 15C6.61255 15 6.72502 14.9571 6.81081 14.8713L10.9467 10.7354C12.1345 9.5476 12.7887 7.96837 12.7887 6.28863C12.7887 4.60883 12.1346 3.02966 10.9468 1.84193ZM8.47505 8.26351C7.94753 8.79103 7.24616 9.08157 6.50011 9.08157C5.75406 9.08157 5.05269 8.79106 4.5252 8.26354C3.99765 7.73602 3.70714 7.03465 3.70714 6.2886C3.70714 5.54258 3.99765 4.84121 4.5252 4.31366C5.05269 3.78614 5.75406 3.49563 6.50011 3.49563C7.24616 3.49563 7.94753 3.78614 8.47505 4.31366C9.00257 4.84115 9.29311 5.54252 9.29311 6.28857C9.29308 7.03462 9.00254 7.73602 8.47505 8.26351Z" fill="white"/>
</symbol>
<symbol  viewBox="0 0 16 16" fill="none" xmlns="http://www.w3.org/2000/svg" id='scooter'>
<path d="M12.9407 10.8467L10.3157 1.86234L12.0813 1.67171C12.4469 1.63109 12.7125 1.30296 12.6719 0.937337C12.6313 0.571712 12.3063 0.302962 11.9375 0.346712L6.84067 0.896712C6.47505 0.937337 6.20942 1.26546 6.25005 1.63109C6.28755 1.97171 6.57505 2.22484 6.91255 2.22484C6.93755 2.22484 6.95942 2.22484 6.98442 2.22171L8.97192 2.00921L11.6469 11.1842C11.1188 11.4936 10.7219 11.9936 10.5469 12.5873H5.45317C5.15942 11.5842 4.22505 10.8467 3.11255 10.8467C1.76567 10.8467 0.675049 11.9248 0.675049 13.253C0.675049 14.5811 1.76567 15.6592 3.11255 15.6592C4.22505 15.6592 5.15942 14.9248 5.45317 13.9186H10.5438C10.8375 14.9217 11.7719 15.6592 12.8844 15.6592C14.2313 15.6592 15.3219 14.5811 15.3219 13.253C15.3219 11.9405 14.2625 10.8748 12.9407 10.8467Z" fill="white"/>
</symbol>
<symbol  viewBox="0 0 10 16"  xmlns="http://www.w3.org/2000/svg" id="lightning">
<path d="M9.19978 0H3.19959L0.800354 8.63849H3.20448L1.16032 16H1.88044L8.83926 7.36114H5.31397L9.19978 0Z"/>
</symbol>
<symbol  viewBox="0 0 29 29" xmlns="http://www.w3.org/2000/svg" id='close'>
<!-- <rect x="21.5863" y="7.44324" width="20" height="1.05263" transform="rotate(135 21.5863 7.44324)" fill="#5D6C7B"/>
<rect x="20.507" y="21.9203" width="20" height="0.999999" transform="rotate(-135 20.507 21.9203)" fill="#5D6C7B"/> -->
<rect x="21.5863" y="7.44324" width="20" height="1.05263" transform="rotate(135 21.5863 7.44324)"/>
<rect x="20.507" y="21.9203" width="20" height="0.999999" transform="rotate(-135 20.507 21.9203)" />
</symbol>
<symbol viewBox="0 0 11 9" fill="none" xmlns="http://www.w3.org/2000/svg" id='tick'>
<path d="M1.91308 4.03516H1.91326C1.99256 4.03525 2.07081 4.05331 2.14213 4.08798C2.21341 4.12262 2.27591 4.17295 2.32497 4.2352L1.91308 4.03516ZM1.91308 4.03516H1.09394C0.890308 4.03516 0.776602 4.26975 0.902321 4.4292L0.902371 4.42927L4.11214 8.49567L4.11218 8.49573C4.32247 8.76188 4.72568 8.76114 4.93667 8.49617L4.93708 8.49566L10.6597 1.24398C10.6598 1.24378 10.66 1.24358 10.6602 1.24338C10.7884 1.08295 10.6699 0.85 10.4689 0.85H9.6498C9.48941 0.85 9.33668 0.9235 9.2376 1.05044C9.23751 1.05055 9.23742 1.05066 9.23734 1.05077L4.52403 7.02157M1.91308 4.03516L4.52403 7.02157M4.52403 7.02157L2.32506 4.23531L4.52403 7.02157Z" fill="#6F73EE" stroke="#6F73EE" stroke-width="0.3"/>
</symbol>
<symbol viewBox="0 0 66 59" fill="none" xmlns="http://www.w3.org/2000/svg" id="telefon">
<path d="M3 19.2564C3 3 19.2564 3 33.1905 3C47.1245 3 63.381 3 63.381 19.2564C63.381 37.8352 47.1245 16.9341 47.1245 16.9341H19.2564C19.2564 16.9341 3 37.8352 3 19.2564ZM21.5788 23.9011C21.5788 23.9011 9.96703 35.5128 9.96703 56.4139H56.4139C56.4139 35.5128 44.8022 23.9011 44.8022 23.9011H21.5788Z"  stroke-width="4.64469" stroke-linecap="round" stroke-linejoin="round"/>
<path d="M33.1905 49.4469C38.3209 49.4469 42.4799 45.2879 42.4799 40.1575C42.4799 35.0272 38.3209 30.8682 33.1905 30.8682C28.0601 30.8682 23.9011 35.0272 23.9011 40.1575C23.9011 45.2879 28.0601 49.4469 33.1905 49.4469Z"  stroke-width="4.64469" stroke-linecap="round" stroke-linejoin="round"/>
</symbol>
<symbol  viewBox="0 0 22 22" fill="none" xmlns="http://www.w3.org/2000/svg" id="chek">
<path d="M15.0168 7.58398H14.0092C13.79 7.58398 13.5816 7.68926 13.4527 7.86973L10.0754 12.5533L8.54566 10.4307C8.41676 10.2523 8.21051 10.1449 7.98922 10.1449H6.9816C6.84195 10.1449 6.76031 10.3039 6.84195 10.4178L9.51891 14.1303C9.58215 14.2185 9.66552 14.2905 9.7621 14.3401C9.85868 14.3897 9.9657 14.4156 10.0743 14.4156C10.1829 14.4156 10.2899 14.3897 10.3865 14.3401C10.483 14.2905 10.5664 14.2185 10.6297 14.1303L15.1543 7.85684C15.2381 7.74297 15.1564 7.58398 15.0168 7.58398V7.58398Z" fill="#6F73EE"/>
<path d="M11 1.375C5.68477 1.375 1.375 5.68477 1.375 11C1.375 16.3152 5.68477 20.625 11 20.625C16.3152 20.625 20.625 16.3152 20.625 11C20.625 5.68477 16.3152 1.375 11 1.375ZM11 18.9922C6.58711 18.9922 3.00781 15.4129 3.00781 11C3.00781 6.58711 6.58711 3.00781 11 3.00781C15.4129 3.00781 18.9922 6.58711 18.9922 11C18.9922 15.4129 15.4129 18.9922 11 18.9922Z" fill="#6F73EE"/>
</symbol>
<symbol  viewBox="0 0 77 102" fill="none" xmlns="http://www.w3.org/2000/svg" id="marker">
<path d="M34.1306 99.3934C5.34343 57.6605 0 53.3775 0 38.04C0 17.031 17.031 0 38.04 0C59.049 0 76.08 17.031 76.08 38.04C76.08 53.3775 70.7366 57.6605 41.9494 99.3934C40.0603 102.122 36.0195 102.122 34.1306 99.3934ZM38.04 53.89C46.7938 53.89 53.89 46.7938 53.89 38.04C53.89 29.2862 46.7938 22.19 38.04 22.19C29.2862 22.19 22.19 29.2862 22.19 38.04C22.19 46.7938 29.2862 53.89 38.04 53.89Z" fill="#fff"/>
</symbol>
<symbol viewBox="0 0 64 46" fill="none" xmlns="http://www.w3.org/2000/svg" id="telegram2">
<path class="viber-icon" d="M63.8197 4.12557L54.2747 42.5923C53.5541 45.3067 51.6767 45.9824 49.0086 44.7044L34.4641 35.5457L27.4471 41.3143C26.67 41.9784 26.0216 42.5325 24.5237 42.5325L25.5697 29.8756L52.5239 9.06206C53.6964 8.17013 52.2686 7.67397 50.703 8.56783L17.3803 26.499L3.03453 22.661C-0.085387 21.829 -0.141866 19.9949 3.68517 18.7149L59.7962 0.241249C62.3942 -0.59083 64.6669 0.735476 63.8197 4.1275V4.12557Z" />
</symbol>
<symbol  viewBox="0 0 18 14" fill="none" xmlns="http://www.w3.org/2000/svg" id='accum'>
<path d="M16.5 1.75001V0.999988C16.5 0.586551 16.1638 0.25 15.75 0.25H13.5C13.0862 0.25 12.75 0.586551 12.75 0.999988V1.74998H12.5303L12.2198 1.43944C11.9407 1.16002 11.554 0.999988 11.1592 0.999988H6.84081C6.44604 0.999988 6.05932 1.16002 5.78025 1.43944L5.46971 1.74998H5.24999V0.999988C5.24999 0.586551 4.91382 0.25 4.5 0.25H2.25C1.83618 0.25 1.50001 0.586551 1.50001 0.999988V1.74998C0.673102 1.75001 0 2.42273 0 3.24999V12.25C0 13.0773 0.673102 13.75 1.50001 13.75H16.5C17.3269 13.75 18 13.0773 18 12.25V3.24999C18 2.42273 17.3269 1.75001 16.5 1.75001ZM4.12499 5.49999H2.62501C2.41773 5.49999 2.25 5.33226 2.25 5.12498C2.25 4.91773 2.41773 4.75 2.62501 4.75H4.12502C4.3323 4.75 4.50004 4.91773 4.50004 5.12501C4.5 5.33229 4.33227 5.49999 4.12499 5.49999ZM15.375 5.49999H15V5.875C15 6.08228 14.8322 6.25001 14.625 6.25001C14.4177 6.25001 14.25 6.08228 14.25 5.875V5.49999H13.8749C13.6677 5.49999 13.4999 5.33226 13.4999 5.12498C13.4999 4.9177 13.6677 4.74996 13.8749 4.74996H14.25V4.37495C14.25 4.16767 14.4177 3.99994 14.625 3.99994C14.8322 3.99994 15 4.16767 15 4.37495V4.75H15.375C15.5823 4.75 15.75 4.91773 15.75 5.12501C15.75 5.33229 15.5823 5.49999 15.375 5.49999Z" fill="#5D6C7B"/>
</symbol>
<symbol viewBox="0 0 16 18" fill="none" xmlns="http://www.w3.org/2000/svg" id="timer">
<path d="M13.4526 5.35819L14.5303 4.28044L13.4698 3.21956L12.3169 4.3725C11.2636 3.62609 10.0346 3.16607 8.75007 3.0375V1.5H10.2501V0H5.75007V1.5H7.25007V3.0375C5.96557 3.16607 4.7365 3.62609 3.68325 4.3725L2.53031 3.21956L1.46982 4.28044L2.54757 5.35819C1.54155 6.42334 0.869546 7.75982 0.614539 9.20259C0.359533 10.6454 0.532693 12.1312 1.11264 13.4767C1.69258 14.8222 2.6539 15.9683 3.8779 16.7736C5.10189 17.5788 6.53493 18.008 8.00007 18.008C9.4652 18.008 10.8982 17.5788 12.1222 16.7736C13.3462 15.9683 14.3076 14.8222 14.8875 13.4767C15.4674 12.1312 15.6406 10.6454 15.3856 9.20259C15.1306 7.75982 14.4586 6.42334 13.4526 5.35819ZM8.00007 16.5C6.81338 16.5 5.65334 16.1481 4.66664 15.4888C3.67995 14.8295 2.91091 13.8925 2.45679 12.7961C2.00266 11.6997 1.88384 10.4933 2.11535 9.32946C2.34686 8.16557 2.91831 7.09647 3.75742 6.25736C4.59654 5.41824 5.66564 4.8468 6.82952 4.61529C7.99341 4.38378 9.19981 4.5026 10.2962 4.95672C11.3925 5.41085 12.3296 6.17988 12.9889 7.16658C13.6482 8.15327 14.0001 9.31331 14.0001 10.5C13.9983 12.0908 13.3656 13.6158 12.2407 14.7407C11.1159 15.8655 9.59082 16.4982 8.00007 16.5Z" fill="#5D6C7B"/>
<path d="M8 6.00015V10.5002H3.5C3.5 11.3902 3.76392 12.2602 4.25839 13.0002C4.75285 13.7402 5.45566 14.317 6.27792 14.6576C7.10019 14.9982 8.00499 15.0873 8.87791 14.9137C9.75082 14.7401 10.5526 14.3115 11.182 13.6821C11.8113 13.0528 12.2399 12.251 12.4135 11.3781C12.5872 10.5051 12.4981 9.60034 12.1575 8.77808C11.8169 7.95581 11.2401 7.25301 10.5001 6.75854C9.76005 6.26407 8.89002 6.00015 8 6.00015Z" fill="#5D6C7B"/>
</symbol>

<symbol  viewBox="0 0 18 18" fill="none" xmlns="http://www.w3.org/2000/svg" id="secundomer">
<path d="M8.47256 4.5644V1.23605C6.43975 1.35274 4.53344 2.14266 3.01184 3.49874L5.36506 5.85196C6.25065 5.11474 7.32597 4.66917 8.47256 4.5644Z" fill="#5D6C7B"/>
<path d="M4.61919 6.59759L2.266 4.24442C0.908759 5.76559 0.117849 7.67203 0.000427246 9.70533H3.32892C3.43438 8.5585 3.88087 7.48311 4.61919 6.59759Z" fill="#5D6C7B"/>
<path d="M14.671 9.70533H17.9995C17.8821 7.67203 17.0912 5.76559 15.7339 4.24442L13.3807 6.59759C14.1191 7.48307 14.5655 8.5585 14.671 9.70533Z" fill="#5D6C7B"/>
<path d="M14.6704 10.76C14.4959 12.676 13.4442 13.845 13.0266 14.2625C12.8203 14.4688 12.8203 14.8033 13.0266 15.0096L14.6267 16.6097C14.7298 16.7128 14.865 16.7644 15.0002 16.7644C15.1354 16.7644 15.2705 16.7128 15.3737 16.6097C16.9531 15.0305 17.874 12.9698 18 10.76H14.6704Z" fill="#5D6C7B"/>
<path d="M3.27189 13.7858C3.41919 13.5544 3.64215 13.2058 3.90962 12.7933C3.63544 12.2499 3.40358 11.5724 3.32965 10.76H0C0.126035 12.9698 1.04695 15.0305 2.62628 16.6097C2.72943 16.7129 2.8646 16.7644 2.99978 16.7644C3.13495 16.7644 3.27016 16.7128 3.37331 16.6097L3.92119 16.0618C3.76249 15.9854 3.61607 15.8821 3.48785 15.754C2.95952 15.2256 2.87068 14.4163 3.27189 13.7858Z" fill="#5D6C7B"/>
<path d="M9.52734 1.23605V4.5644C10.6739 4.66917 11.7493 5.1147 12.6348 5.85196L14.9881 3.49874C13.4665 2.14263 11.5601 1.35274 9.52734 1.23605Z" fill="#5D6C7B"/>
<path d="M7.82841 9.06992C7.01222 9.8861 4.45108 13.8972 4.16175 14.352C4.02903 14.5605 4.05899 14.8332 4.23375 15.008C4.40851 15.1827 4.68122 15.2127 4.88976 15.08C5.34444 14.7906 9.35564 12.2295 10.1718 11.4133C10.8179 10.7673 10.8179 9.71602 10.1718 9.06995C9.52576 8.42389 8.47448 8.42385 7.82841 9.06992Z" fill="#5D6C7B"/>
</symbol>

</svg>
