<svg width="0" height="0" class="hidden">
<symbol  viewBox="0 0 12 13"  xmlns="http://www.w3.org/2000/svg" id="viber">
<g clip-path="url(#clip0_1_15970)">
<path d="M6.40796 7.27975C6.27072 7.41708 6.04815 7.41708 5.91082 7.27975L4.31323 5.68216C4.24731 5.61624 4.21023 5.52679 4.21023 5.43359C4.21023 5.3403 4.24731 5.25095 4.31323 5.18494L4.59723 4.90103L3.76309 4.06689L3.07974 4.75024C2.84976 4.98022 2.84985 5.3544 3.07974 5.58438L6.0086 8.51343C6.11929 8.62411 6.26742 8.685 6.42572 8.685C6.58401 8.685 6.73214 8.62402 6.84283 8.51334L7.52618 7.83008L6.69204 6.99585L6.40796 7.27975Z" />
<path d="M11.4957 4.73541C11.4957 3.60831 11.0541 2.54593 10.2519 1.74384C9.4498 0.941742 8.38742 0.5 7.26041 0.5H4.75085C4.75085 0.5 4.75085 0.5 4.75076 0.5C3.62384 0.5 2.56146 0.941742 1.75946 1.74374C0.957367 2.54584 0.515625 3.60831 0.515625 4.73532V6.70792C0.515625 7.58069 0.78186 8.42032 1.28558 9.13599C1.72998 9.76733 2.32764 10.2604 3.02444 10.5732V11.7062C3.02444 12.2921 3.35248 12.4999 3.63336 12.5C3.83405 12.5 4.03482 12.4009 4.23019 12.2057L5.49243 10.9432H7.2605C8.38751 10.9432 9.44989 10.5015 10.252 9.6994C11.0541 8.89731 11.4958 7.83493 11.4958 6.70792L11.4957 4.73541ZM8.27197 8.07864L7.33997 9.01056C7.09644 9.25409 6.77179 9.38803 6.42572 9.38803C6.07965 9.38803 5.755 9.254 5.51147 9.01056L2.58252 6.08151C2.07852 5.57733 2.07852 4.75711 2.58252 4.25302L3.51453 3.32111C3.58044 3.2551 3.6698 3.21811 3.76309 3.21811C3.85629 3.21811 3.94574 3.2551 4.01166 3.32111L5.34302 4.65247C5.40894 4.71838 5.44592 4.80783 5.44592 4.90103C5.44592 4.99423 5.40894 5.08368 5.34293 5.1496L5.05902 5.4335L6.15948 6.53397L6.44348 6.24997C6.58081 6.11273 6.80338 6.11273 6.94061 6.25006L8.27197 7.58142C8.33798 7.64734 8.37497 7.73679 8.37497 7.82999C8.37497 7.92328 8.33798 8.01273 8.27197 8.07864ZM5.73944 3.91299C5.73944 3.7189 5.89682 3.56143 6.091 3.56143C7.30911 3.56143 8.30017 4.5524 8.30017 5.77042C8.30017 5.9646 8.14279 6.12198 7.94861 6.12198C7.75452 6.12198 7.59705 5.9646 7.59705 5.77042C7.59705 4.94012 6.92148 4.26456 6.091 4.26456C5.89682 4.26456 5.73944 4.10718 5.73944 3.91299ZM9.45474 6.12216C9.26056 6.12216 9.10318 5.96469 9.10318 5.7706C9.10327 4.96594 8.78989 4.20953 8.22098 3.64053C7.65198 3.07162 6.89557 2.75824 6.09091 2.75824C5.89682 2.75824 5.73935 2.60086 5.73935 2.40668C5.73935 2.21259 5.89682 2.05511 6.09091 2.05511C7.08334 2.05511 8.01636 2.44165 8.71811 3.1434C9.41995 3.84515 9.8064 4.77817 9.8063 5.7706C9.8063 5.96469 9.64893 6.12216 9.45474 6.12216Z" />
</g>
<defs>
<clipPath id="clip0_1_15970">
<rect width="12" height="12" fill="white" transform="translate(0 0.5)"/>
</clipPath>
</defs>
</symbol>
<symbol  viewBox="0 0 13 13"  xmlns="http://www.w3.org/2000/svg" id="whatsapp">
<g clip-path="url(#clip0_1_15973)">
<path d="M6.49685 0.503787C3.18509 0.50449 0.500956 3.18978 0.501659 6.50153C0.501893 7.64828 0.830971 8.7709 1.44982 9.73633L0.516884 12.1569C0.467202 12.2856 0.531289 12.4303 0.660026 12.48C0.688813 12.4911 0.719381 12.4968 0.75023 12.4967C0.778854 12.4969 0.807267 12.492 0.834181 12.4822L3.33271 11.5902C6.14383 13.341 9.842 12.4815 11.5928 9.67033C13.3436 6.85918 12.484 3.16104 9.67286 1.41026C8.71994 0.81675 7.61952 0.502686 6.49685 0.503787Z" />
<path d="M9.35557 7.52445C9.35557 7.52445 8.74344 7.22462 8.36016 7.02475C7.92642 6.80138 7.41672 7.21963 7.17686 7.4575C6.80356 7.3141 6.46261 7.09767 6.17396 6.82087C5.89711 6.53227 5.68068 6.19131 5.53732 5.81796C5.77519 5.57761 6.19244 5.06841 5.97008 4.63467C5.77269 4.2509 5.47038 3.63877 5.47038 3.63877C5.42796 3.55458 5.34178 3.50144 5.2475 3.50134H4.74781C4.02008 3.62703 3.49097 4.262 3.49855 5.00046C3.49855 5.78498 4.43749 7.29211 5.07063 7.92572C5.70377 8.55933 7.21087 9.49779 7.99589 9.49779C8.73435 9.50538 9.36932 8.97624 9.49501 8.24854V7.74884C9.49508 7.65356 9.44102 7.56654 9.35557 7.52445Z" fill="#F7F7F7"/>
</g>
<defs>
<clipPath id="clip0_1_15973">
<rect width="12" height="12" fill="white" transform="translate(0.5 0.5)"/>
</clipPath>
</defs>
</symbol>
<symbol  viewBox="0 0 12 11"  xmlns="http://www.w3.org/2000/svg" id="telegram">
<path d="M4.70847 7.09058L4.50997 9.88258C4.79397 9.88258 4.91697 9.76058 5.06447 9.61408L6.39597 8.34158L9.15497 10.3621C9.66097 10.6441 10.0175 10.4956 10.154 9.89658L11.965 1.41058L11.9655 1.41008C12.126 0.662081 11.695 0.369581 11.202 0.553081L0.556967 4.62858C-0.169533 4.91058 -0.158533 5.31558 0.433467 5.49908L3.15497 6.34558L9.47647 2.39008C9.77397 2.19308 10.0445 2.30208 9.82197 2.49908L4.70847 7.09058Z" />
</symbol>
<symbol  viewBox="0 0 16 16" fill="none" xmlns="http://www.w3.org/2000/svg" id='glass'>
<path d="M15.9519 14.8499L10.758 9.65596C11.564 8.61396 11.9999 7.33997 11.9999 5.99997C11.9999 4.39598 11.374 2.89199 10.242 1.75799C9.10996 0.623997 7.60197 0 5.99997 0C4.39798 0 2.88999 0.625997 1.75799 1.75799C0.623997 2.88999 0 4.39598 0 5.99997C0 7.60197 0.625997 9.10996 1.75799 10.242C2.88999 11.376 4.39598 11.9999 5.99997 11.9999C7.33997 11.9999 8.61196 11.564 9.65396 10.76L14.8479 15.9519C14.8632 15.9672 14.8812 15.9793 14.9012 15.9875C14.9211 15.9958 14.9424 16 14.9639 16C14.9855 16 15.0068 15.9958 15.0267 15.9875C15.0466 15.9793 15.0647 15.9672 15.0799 15.9519L15.9519 15.0819C15.9672 15.0667 15.9793 15.0486 15.9875 15.0287C15.9958 15.0088 16 14.9875 16 14.9659C16 14.9444 15.9958 14.9231 15.9875 14.9032C15.9793 14.8833 15.9672 14.8652 15.9519 14.8499ZM9.16796 9.16796C8.31996 10.014 7.19597 10.48 5.99997 10.48C4.80398 10.48 3.67998 10.014 2.83199 9.16796C1.98599 8.31996 1.51999 7.19597 1.51999 5.99997C1.51999 4.80398 1.98599 3.67798 2.83199 2.83199C3.67998 1.98599 4.80398 1.51999 5.99997 1.51999C7.19597 1.51999 8.32196 1.98399 9.16796 2.83199C10.014 3.67998 10.48 4.80398 10.48 5.99997C10.48 7.19597 10.014 8.32196 9.16796 9.16796Z" fill="white"/>
</symbol>

<symbol  viewBox="0 0 20 20"  xmlns="http://www.w3.org/2000/svg" id='scales'>
<path d="M19.4141 11.2639H18.7766L16.7349 6.32553C17.0208 6.28663 17.2413 6.04217 17.2413 5.74561C17.2413 5.42202 16.979 5.15967 16.6554 5.15967H11.6177C11.3769 4.49088 10.7363 4.01135 9.98559 4.01135C9.23488 4.01135 8.59422 4.49092 8.3534 5.15967H3.34465C3.02105 5.15967 2.75871 5.42202 2.75871 5.74561C2.75871 6.04217 2.97926 6.28663 3.26512 6.32553L1.22344 11.2639H0.585938C0.262344 11.2639 0 11.5263 0 11.8499C0 14.132 1.85668 15.9887 4.13883 15.9887C6.42098 15.9887 8.27766 14.132 8.27766 11.8499C8.27766 11.5263 8.01531 11.2639 7.69172 11.2639H7.05418L5.01504 6.33155H8.3534C8.59422 7.00034 9.23484 7.47987 9.98559 7.47987C10.7363 7.47987 11.3769 7.00034 11.6177 6.33155H14.985L12.9459 11.2639H12.3083C11.9847 11.2639 11.7224 11.5263 11.7224 11.8499C11.7224 14.132 13.5791 15.9887 15.8612 15.9887C18.1434 15.9887 20 14.132 20 11.8499C20 11.5263 19.7377 11.2639 19.4141 11.2639ZM4.13883 14.8168C2.70332 14.8168 1.5027 13.7922 1.22996 12.4358H7.0477C6.77496 13.7922 5.57434 14.8168 4.13883 14.8168ZM5.78613 11.2639H2.49152L4.13883 7.2794L5.78613 11.2639ZM9.98555 6.30799C9.67543 6.30799 9.42316 6.05573 9.42316 5.74561C9.42316 5.43549 9.67543 5.18323 9.98555 5.18323C10.2956 5.18323 10.5479 5.43549 10.5479 5.74561C10.5479 6.05573 10.2957 6.30799 9.98555 6.30799ZM15.8612 7.2794L17.5085 11.2639H14.2139L15.8612 7.2794ZM15.8612 14.8168C14.4257 14.8168 13.225 13.7922 12.9523 12.4358H18.77C18.4973 13.7922 17.2966 14.8168 15.8612 14.8168Z"/>
</symbol>
<symbol  viewBox="0 0 18 16"  xmlns="http://www.w3.org/2000/svg" id='heard'>
<path d="M16.9935 3.51496C16.7329 2.90541 16.357 2.35303 15.887 1.88876C15.4167 1.4231 14.8621 
1.05305 14.2535 0.798733C13.6224 0.53397 12.9455 0.39845 12.2622 0.400038C11.3034 0.400038 10.3681 0.66518 9.55519 1.166C9.36072 1.28581 9.17598 1.4174 9.00096 1.56077C8.82594 1.4174 8.6412 1.28581 8.44673 1.166C7.63386 0.66518 6.69847 0.400038 5.73975 0.400038C5.0494 0.400038 4.38043 0.533591 3.74841 0.798733C3.13779 1.05405 2.58745 1.42132 2.11489 1.88876C1.64428 2.35251 1.26834 2.90501 1.00838 3.51496C0.73807 4.14934 0.599998 4.823 0.599998 5.51629C0.599998 6.17031 0.732236 6.85182 0.994766 7.54512C1.21451 8.1245 1.52955 8.72549 1.9321 9.33237C2.56995 10.2928 3.44699 11.2944 4.536 12.3098C6.34066 13.993 8.1278 15.1557 8.20365 15.2028L8.66453 15.5013C8.86872 15.6329 9.13125 15.6329 9.33544 15.5013L9.79633 15.2028C9.87217 15.1537 11.6574 13.993 13.464 12.3098C14.553 11.2944 15.43 10.2928 16.0679 9.33237C16.4704 8.72549 16.7874 8.1245 17.0052 7.54512C17.2677 6.85182 17.4 6.17031 17.4 5.51629C17.4019 4.823 17.2639 4.14934 16.9935 3.51496ZM9.00096 13.9478C9.00096 13.9478 2.07795 9.46789 2.07795 5.51629C2.07795 3.51496 3.7173 1.89269 5.73975 1.89269C7.1613 1.89269 8.39422 2.69401 9.00096 3.86456C9.6077 2.69401 10.8406 1.89269 12.2622 1.89269C14.2846 1.89269 15.924 3.51496 15.924 5.51629C15.924 9.46789 9.00096 13.9478 9.00096 13.9478Z"/>
</symbol>
<symbol  viewBox="0 0 20 18"  xmlns="http://www.w3.org/2000/svg" id='card'>
<path d="M19.1523 6.25427H15.0031L12.6756 0.924855C12.5461 0.628332 12.2007 0.492824 11.9042 0.622395C11.6076 0.751887 11.4722 1.09732 11.6017 1.39388L13.7244 6.25431H6.27561L8.39827 1.39388C8.52776 1.09732 8.39237 0.751926 8.09581 0.622395C7.79929 0.492824 7.45382 0.628254 7.32436 0.924855L4.99686 6.25427H0.847685C0.304911 6.25427 -0.0979012 6.74564 0.0208488 7.26286L2.20581 16.7797C2.29257 17.1576 2.63608 17.4261 3.03265 17.4261H16.9673C17.3639 17.4261 17.7074 17.1576 17.7942 16.7797L19.9791 7.26286C20.0979 6.74568 19.695 6.25427 19.1523 6.25427ZM5.1071 8.0513C5.02882 8.0513 4.94925 8.03552 4.87288 8.00216C4.57632 7.87267 4.44089 7.52728 4.57042 7.23068L5.01057 6.22278H6.28933L5.64432 7.69966C5.54819 7.91993 5.33296 8.0513 5.1071 8.0513ZM7.0703 14.3011C7.0703 14.6247 6.80796 14.8871 6.48436 14.8871C6.16077 14.8871 5.89843 14.6247 5.89843 14.3011V10.0043C5.89843 9.68068 6.16077 9.41833 6.48436 9.41833C6.80796 9.41833 7.0703 9.68068 7.0703 10.0043V14.3011ZM10.5859 14.3011C10.5859 14.6247 10.3236 14.8871 9.99999 14.8871C9.6764 14.8871 9.41405 14.6247 9.41405 14.3011V10.0043C9.41405 9.68068 9.6764 9.41833 9.99999 9.41833C10.3236 9.41833 10.5859 9.68068 10.5859 10.0043V14.3011ZM14.1016 14.3011C14.1016 14.6247 13.8392 14.8871 13.5156 14.8871C13.192 14.8871 12.9297 14.6247 12.9297 14.3011V10.0043C12.9297 9.68068 13.192 9.41833 13.5156 9.41833C13.8392 9.41833 14.1016 9.68068 14.1016 10.0043V14.3011ZM15.1271 8.00216C15.0507 8.03552 14.9712 8.0513 14.8929 8.0513C14.667 8.0513 14.4518 7.91997 14.3556 7.6997L13.7106 6.22282H14.9894L15.4295 7.23071C15.5591 7.52728 15.4236 7.87267 15.1271 8.00216Z"/>
</symbol>
<symbol  viewBox="0 0 113 23" fill="none" xmlns="http://www.w3.org/2000/svg" id="logo">
<path d="M0.22 0.999999V22H5.47V0.999999H0.22ZM12.61 0.999999L4 10.99L12.85 22H19L10.03 10.84L18.55 0.999999H12.61ZM21.0466 0.999999V15.1C21.0466 16.42 21.2566 17.57 21.6766 18.55C22.1166 19.53 22.7166 20.34 23.4766 20.98C24.2566 21.6 25.1566 22.07 26.1766 22.39C27.1966 22.71 28.2966 22.87 29.4766 22.87C30.6566 22.87 31.7566 22.71 32.7766 22.39C33.8166 22.07 34.7166 21.6 35.4766 20.98C36.2566 20.34 36.8566 19.53 37.2766 18.55C37.7166 17.57 37.9366 16.42 37.9366 15.1V0.999999H32.8666V14.74C32.8666 15.8 32.5866 16.66 32.0266 17.32C31.4666 17.98 30.6166 18.31 29.4766 18.31C28.3566 18.31 27.5166 17.98 26.9566 17.32C26.3966 16.66 26.1166 15.8 26.1166 14.74V0.999999H21.0466ZM52.6417 14.41H58.2217C58.0417 14.95 57.7917 15.46 57.4717 15.94C57.1717 16.4 56.8017 16.81 56.3617 17.17C55.9217 17.51 55.3917 17.78 54.7717 17.98C54.1517 18.16 53.4617 18.25 52.7017 18.25C51.4617 18.25 50.3617 17.98 49.4017 17.44C48.4617 16.88 47.7117 16.1 47.1517 15.1C46.6117 14.08 46.3417 12.88 46.3417 11.5C46.3417 10.1 46.6217 8.92 47.1817 7.96C47.7617 6.98 48.5317 6.23 49.4917 5.71C50.4517 5.19 51.5217 4.93 52.7017 4.93C53.9217 4.93 54.9317 5.21 55.7317 5.77C56.5517 6.31 57.2017 7 57.6817 7.84L62.1817 5.5C61.5217 4.52 60.7317 3.66 59.8117 2.92C58.9117 2.16 57.8717 1.57 56.6917 1.15C55.5117 0.729999 54.1817 0.519999 52.7017 0.519999C51.0417 0.519999 49.5017 0.779999 48.0817 1.3C46.6617 1.82 45.4217 2.56 44.3617 3.52C43.3017 4.48 42.4817 5.64 41.9017 7C41.3217 8.34 41.0317 9.84 41.0317 11.5C41.0317 13.16 41.3117 14.68 41.8717 16.06C42.4517 17.42 43.2517 18.6 44.2717 19.6C45.2917 20.58 46.5017 21.34 47.9017 21.88C49.3017 22.4 50.8417 22.66 52.5217 22.66C54.3017 22.66 55.8817 22.35 57.2617 21.73C58.6417 21.09 59.7917 20.21 60.7117 19.09C61.6317 17.97 62.3117 16.68 62.7517 15.22C63.1917 13.76 63.3617 12.19 63.2617 10.51H52.6417V14.41ZM70.8353 11.5C70.8353 10.26 71.0753 9.17 71.5553 8.23C72.0553 7.27 72.7453 6.52 73.6253 5.98C74.5253 5.44 75.5753 5.17 76.7753 5.17C77.9953 5.17 79.0453 5.44 79.9253 5.98C80.8053 6.52 81.4853 7.27 81.9653 8.23C82.4453 9.17 82.6853 10.26 82.6853 11.5C82.6853 12.74 82.4353 13.84 81.9353 14.8C81.4553 15.74 80.7653 16.48 79.8653 17.02C78.9853 17.56 77.9553 17.83 76.7753 17.83C75.5753 17.83 74.5253 17.56 73.6253 17.02C72.7453 16.48 72.0553 15.74 71.5553 14.8C71.0753 13.84 70.8353 12.74 70.8353 11.5ZM65.4653 11.5C65.4653 13.12 65.7353 14.61 66.2753 15.97C66.8353 17.33 67.6153 18.51 68.6153 19.51C69.6353 20.51 70.8353 21.29 72.2153 21.85C73.5953 22.39 75.1153 22.66 76.7753 22.66C78.4153 22.66 79.9253 22.39 81.3053 21.85C82.6853 21.29 83.8753 20.51 84.8753 19.51C85.8953 18.51 86.6753 17.33 87.2153 15.97C87.7753 14.61 88.0553 13.12 88.0553 11.5C88.0553 9.88 87.7753 8.4 87.2153 7.06C86.6553 5.72 85.8653 4.56 84.8453 3.58C83.8253 2.6 82.6253 1.85 81.2453 1.33C79.8853 0.789999 78.3953 0.519999 76.7753 0.519999C75.1753 0.519999 73.6853 0.789999 72.3053 1.33C70.9253 1.85 69.7253 2.6 68.7053 3.58C67.6853 4.56 66.8853 5.72 66.3053 7.06C65.7453 8.4 65.4653 9.88 65.4653 11.5ZM95.474 11.5C95.474 10.26 95.714 9.17 96.194 8.23C96.694 7.27 97.384 6.52 98.264 5.98C99.164 5.44 100.214 5.17 101.414 5.17C102.634 5.17 103.684 5.44 104.564 5.98C105.444 6.52 106.124 7.27 106.604 8.23C107.084 9.17 107.324 10.26 107.324 11.5C107.324 12.74 107.074 13.84 106.574 14.8C106.094 15.74 105.404 16.48 104.504 17.02C103.624 17.56 102.594 17.83 101.414 17.83C100.214 17.83 99.164 17.56 98.264 17.02C97.384 16.48 96.694 15.74 96.194 14.8C95.714 13.84 95.474 12.74 95.474 11.5ZM90.104 11.5C90.104 13.12 90.374 14.61 90.914 15.97C91.474 17.33 92.254 18.51 93.254 19.51C94.274 20.51 95.474 21.29 96.854 21.85C98.234 22.39 99.754 22.66 101.414 22.66C103.054 22.66 104.564 22.39 105.944 21.85C107.324 21.29 108.514 20.51 109.514 19.51C110.534 18.51 111.314 17.33 111.854 15.97C112.414 14.61 112.694 13.12 112.694 11.5C112.694 9.88 112.414 8.4 111.854 7.06C111.294 5.72 110.504 4.56 109.484 3.58C108.464 2.6 107.264 1.85 105.884 1.33C104.524 0.789999 103.034 0.519999 101.414 0.519999C99.814 0.519999 98.324 0.789999 96.944 1.33C95.564 1.85 94.364 2.6 93.344 3.58C92.324 4.56 91.524 5.72 90.944 7.06C90.384 8.4 90.104 9.88 90.104 11.5Z" fill="#282739"/>
</symbol>
<symbol  viewBox="0 0 13 15" fill="none" xmlns="http://www.w3.org/2000/svg" id="position">
<path d="M10.9468 1.84193C9.75908 0.654143 8.1798 0 6.50008 0C4.82034 0 3.24111 0.654114 2.05327 1.84193C0.865508 3.02969 0.211365 4.60886 0.211365 6.2886C0.211365 7.96834 0.865508 9.54757 2.05327 10.7354L6.18936 14.8713C6.27517 14.9571 6.38764 15 6.50008 15C6.61255 15 6.72502 14.9571 6.81081 14.8713L10.9467 10.7354C12.1345 9.5476 12.7887 7.96837 12.7887 6.28863C12.7887 4.60883 12.1346 3.02966 10.9468 1.84193ZM8.47505 8.26351C7.94753 8.79103 7.24616 9.08157 6.50011 9.08157C5.75406 9.08157 5.05269 8.79106 4.5252 8.26354C3.99765 7.73602 3.70714 7.03465 3.70714 6.2886C3.70714 5.54258 3.99765 4.84121 4.5252 4.31366C5.05269 3.78614 5.75406 3.49563 6.50011 3.49563C7.24616 3.49563 7.94753 3.78614 8.47505 4.31366C9.00257 4.84115 9.29311 5.54252 9.29311 6.28857C9.29308 7.03462 9.00254 7.73602 8.47505 8.26351Z" fill="white"/>
</symbol>
<symbol  viewBox="0 0 16 16" fill="none" xmlns="http://www.w3.org/2000/svg" id='scooter'>
<path d="M12.9407 10.8467L10.3157 1.86234L12.0813 1.67171C12.4469 1.63109 12.7125 1.30296 12.6719 0.937337C12.6313 0.571712 12.3063 0.302962 11.9375 0.346712L6.84067 0.896712C6.47505 0.937337 6.20942 1.26546 6.25005 1.63109C6.28755 1.97171 6.57505 2.22484 6.91255 2.22484C6.93755 2.22484 6.95942 2.22484 6.98442 2.22171L8.97192 2.00921L11.6469 11.1842C11.1188 11.4936 10.7219 11.9936 10.5469 12.5873H5.45317C5.15942 11.5842 4.22505 10.8467 3.11255 10.8467C1.76567 10.8467 0.675049 11.9248 0.675049 13.253C0.675049 14.5811 1.76567 15.6592 3.11255 15.6592C4.22505 15.6592 5.15942 14.9248 5.45317 13.9186H10.5438C10.8375 14.9217 11.7719 15.6592 12.8844 15.6592C14.2313 15.6592 15.3219 14.5811 15.3219 13.253C15.3219 11.9405 14.2625 10.8748 12.9407 10.8467Z" fill="white"/>
</symbol>
<symbol  viewBox="0 0 10 16"  xmlns="http://www.w3.org/2000/svg" id="lightning">
<path d="M9.19978 0H3.19959L0.800354 8.63849H3.20448L1.16032 16H1.88044L8.83926 7.36114H5.31397L9.19978 0Z"/>
</symbol>
<symbol  viewBox="0 0 29 29" fill="none" xmlns="http://www.w3.org/2000/svg" id='close'>
<rect x="21.5863" y="7.44324" width="20" height="1.05263" transform="rotate(135 21.5863 7.44324)" fill="#5D6C7B"/>
<rect x="20.507" y="21.9203" width="20" height="0.999999" transform="rotate(-135 20.507 21.9203)" fill="#5D6C7B"/>
</symbol>
<symbol viewBox="0 0 11 9" fill="none" xmlns="http://www.w3.org/2000/svg" id='tick'>
<path d="M1.91308 4.03516H1.91326C1.99256 4.03525 2.07081 4.05331 2.14213 4.08798C2.21341 4.12262 2.27591 4.17295 2.32497 4.2352L1.91308 4.03516ZM1.91308 4.03516H1.09394C0.890308 4.03516 0.776602 4.26975 0.902321 4.4292L0.902371 4.42927L4.11214 8.49567L4.11218 8.49573C4.32247 8.76188 4.72568 8.76114 4.93667 8.49617L4.93708 8.49566L10.6597 1.24398C10.6598 1.24378 10.66 1.24358 10.6602 1.24338C10.7884 1.08295 10.6699 0.85 10.4689 0.85H9.6498C9.48941 0.85 9.33668 0.9235 9.2376 1.05044C9.23751 1.05055 9.23742 1.05066 9.23734 1.05077L4.52403 7.02157M1.91308 4.03516L4.52403 7.02157M4.52403 7.02157L2.32506 4.23531L4.52403 7.02157Z" fill="#6F73EE" stroke="#6F73EE" stroke-width="0.3"/>
</symbol>
<symbol viewBox="0 0 66 59" fill="none" xmlns="http://www.w3.org/2000/svg" id="telefon">
<path d="M3 19.2564C3 3 19.2564 3 33.1905 3C47.1245 3 63.381 3 63.381 19.2564C63.381 37.8352 47.1245 16.9341 47.1245 16.9341H19.2564C19.2564 16.9341 3 37.8352 3 19.2564ZM21.5788 23.9011C21.5788 23.9011 9.96703 35.5128 9.96703 56.4139H56.4139C56.4139 35.5128 44.8022 23.9011 44.8022 23.9011H21.5788Z"  stroke-width="4.64469" stroke-linecap="round" stroke-linejoin="round"/>
<path d="M33.1905 49.4469C38.3209 49.4469 42.4799 45.2879 42.4799 40.1575C42.4799 35.0272 38.3209 30.8682 33.1905 30.8682C28.0601 30.8682 23.9011 35.0272 23.9011 40.1575C23.9011 45.2879 28.0601 49.4469 33.1905 49.4469Z"  stroke-width="4.64469" stroke-linecap="round" stroke-linejoin="round"/>
</symbol>
<symbol  viewBox="0 0 22 22" fill="none" xmlns="http://www.w3.org/2000/svg" id="chek">
<path d="M15.0168 7.58398H14.0092C13.79 7.58398 13.5816 7.68926 13.4527 7.86973L10.0754 12.5533L8.54566 10.4307C8.41676 10.2523 8.21051 10.1449 7.98922 10.1449H6.9816C6.84195 10.1449 6.76031 10.3039 6.84195 10.4178L9.51891 14.1303C9.58215 14.2185 9.66552 14.2905 9.7621 14.3401C9.85868 14.3897 9.9657 14.4156 10.0743 14.4156C10.1829 14.4156 10.2899 14.3897 10.3865 14.3401C10.483 14.2905 10.5664 14.2185 10.6297 14.1303L15.1543 7.85684C15.2381 7.74297 15.1564 7.58398 15.0168 7.58398V7.58398Z" fill="#6F73EE"/>
<path d="M11 1.375C5.68477 1.375 1.375 5.68477 1.375 11C1.375 16.3152 5.68477 20.625 11 20.625C16.3152 20.625 20.625 16.3152 20.625 11C20.625 5.68477 16.3152 1.375 11 1.375ZM11 18.9922C6.58711 18.9922 3.00781 15.4129 3.00781 11C3.00781 6.58711 6.58711 3.00781 11 3.00781C15.4129 3.00781 18.9922 6.58711 18.9922 11C18.9922 15.4129 15.4129 18.9922 11 18.9922Z" fill="#6F73EE"/>
</symbol>
<symbol  viewBox="0 0 77 102" fill="none" xmlns="http://www.w3.org/2000/svg" id="marker">
<path d="M34.1306 99.3934C5.34343 57.6605 0 53.3775 0 38.04C0 17.031 17.031 0 38.04 0C59.049 0 76.08 17.031 76.08 38.04C76.08 53.3775 70.7366 57.6605 41.9494 99.3934C40.0603 102.122 36.0195 102.122 34.1306 99.3934ZM38.04 53.89C46.7938 53.89 53.89 46.7938 53.89 38.04C53.89 29.2862 46.7938 22.19 38.04 22.19C29.2862 22.19 22.19 29.2862 22.19 38.04C22.19 46.7938 29.2862 53.89 38.04 53.89Z" fill="#fff"/>
</symbol>
<symbol viewBox="0 0 64 46" fill="none" xmlns="http://www.w3.org/2000/svg" id="telegram2">
<path  d="M63.8197 4.12557L54.2747 42.5923C53.5541 45.3067 51.6767 45.9824 49.0086 44.7044L34.4641 35.5457L27.4471 41.3143C26.67 41.9784 26.0216 42.5325 24.5237 42.5325L25.5697 29.8756L52.5239 9.06206C53.6964 8.17013 52.2686 7.67397 50.703 8.56783L17.3803 26.499L3.03453 22.661C-0.085387 21.829 -0.141866 19.9949 3.68517 18.7149L59.7962 0.241249C62.3942 -0.59083 64.6669 0.735476 63.8197 4.1275V4.12557Z" />
</symbol>
<symbol  viewBox="0 0 18 14" fill="none" xmlns="http://www.w3.org/2000/svg" id='accum'>
<path d="M16.5 1.75001V0.999988C16.5 0.586551 16.1638 0.25 15.75 0.25H13.5C13.0862 0.25 12.75 0.586551 12.75 0.999988V1.74998H12.5303L12.2198 1.43944C11.9407 1.16002 11.554 0.999988 11.1592 0.999988H6.84081C6.44604 0.999988 6.05932 1.16002 5.78025 1.43944L5.46971 1.74998H5.24999V0.999988C5.24999 0.586551 4.91382 0.25 4.5 0.25H2.25C1.83618 0.25 1.50001 0.586551 1.50001 0.999988V1.74998C0.673102 1.75001 0 2.42273 0 3.24999V12.25C0 13.0773 0.673102 13.75 1.50001 13.75H16.5C17.3269 13.75 18 13.0773 18 12.25V3.24999C18 2.42273 17.3269 1.75001 16.5 1.75001ZM4.12499 5.49999H2.62501C2.41773 5.49999 2.25 5.33226 2.25 5.12498C2.25 4.91773 2.41773 4.75 2.62501 4.75H4.12502C4.3323 4.75 4.50004 4.91773 4.50004 5.12501C4.5 5.33229 4.33227 5.49999 4.12499 5.49999ZM15.375 5.49999H15V5.875C15 6.08228 14.8322 6.25001 14.625 6.25001C14.4177 6.25001 14.25 6.08228 14.25 5.875V5.49999H13.8749C13.6677 5.49999 13.4999 5.33226 13.4999 5.12498C13.4999 4.9177 13.6677 4.74996 13.8749 4.74996H14.25V4.37495C14.25 4.16767 14.4177 3.99994 14.625 3.99994C14.8322 3.99994 15 4.16767 15 4.37495V4.75H15.375C15.5823 4.75 15.75 4.91773 15.75 5.12501C15.75 5.33229 15.5823 5.49999 15.375 5.49999Z" fill="#5D6C7B"/>
</symbol>
<symbol viewBox="0 0 16 18" fill="none" xmlns="http://www.w3.org/2000/svg" id="timer">
<path d="M13.4526 5.35819L14.5303 4.28044L13.4698 3.21956L12.3169 4.3725C11.2636 3.62609 10.0346 3.16607 8.75007 3.0375V1.5H10.2501V0H5.75007V1.5H7.25007V3.0375C5.96557 3.16607 4.7365 3.62609 3.68325 4.3725L2.53031 3.21956L1.46982 4.28044L2.54757 5.35819C1.54155 6.42334 0.869546 7.75982 0.614539 9.20259C0.359533 10.6454 0.532693 12.1312 1.11264 13.4767C1.69258 14.8222 2.6539 15.9683 3.8779 16.7736C5.10189 17.5788 6.53493 18.008 8.00007 18.008C9.4652 18.008 10.8982 17.5788 12.1222 16.7736C13.3462 15.9683 14.3076 14.8222 14.8875 13.4767C15.4674 12.1312 15.6406 10.6454 15.3856 9.20259C15.1306 7.75982 14.4586 6.42334 13.4526 5.35819ZM8.00007 16.5C6.81338 16.5 5.65334 16.1481 4.66664 15.4888C3.67995 14.8295 2.91091 13.8925 2.45679 12.7961C2.00266 11.6997 1.88384 10.4933 2.11535 9.32946C2.34686 8.16557 2.91831 7.09647 3.75742 6.25736C4.59654 5.41824 5.66564 4.8468 6.82952 4.61529C7.99341 4.38378 9.19981 4.5026 10.2962 4.95672C11.3925 5.41085 12.3296 6.17988 12.9889 7.16658C13.6482 8.15327 14.0001 9.31331 14.0001 10.5C13.9983 12.0908 13.3656 13.6158 12.2407 14.7407C11.1159 15.8655 9.59082 16.4982 8.00007 16.5Z" fill="#5D6C7B"/>
<path d="M8 6.00015V10.5002H3.5C3.5 11.3902 3.76392 12.2602 4.25839 13.0002C4.75285 13.7402 5.45566 14.317 6.27792 14.6576C7.10019 14.9982 8.00499 15.0873 8.87791 14.9137C9.75082 14.7401 10.5526 14.3115 11.182 13.6821C11.8113 13.0528 12.2399 12.251 12.4135 11.3781C12.5872 10.5051 12.4981 9.60034 12.1575 8.77808C11.8169 7.95581 11.2401 7.25301 10.5001 6.75854C9.76005 6.26407 8.89002 6.00015 8 6.00015Z" fill="#5D6C7B"/>
</symbol>

<symbol  viewBox="0 0 18 18" fill="none" xmlns="http://www.w3.org/2000/svg" id="secundomer">
<path d="M8.47256 4.5644V1.23605C6.43975 1.35274 4.53344 2.14266 3.01184 3.49874L5.36506 5.85196C6.25065 5.11474 7.32597 4.66917 8.47256 4.5644Z" fill="#5D6C7B"/>
<path d="M4.61919 6.59759L2.266 4.24442C0.908759 5.76559 0.117849 7.67203 0.000427246 9.70533H3.32892C3.43438 8.5585 3.88087 7.48311 4.61919 6.59759Z" fill="#5D6C7B"/>
<path d="M14.671 9.70533H17.9995C17.8821 7.67203 17.0912 5.76559 15.7339 4.24442L13.3807 6.59759C14.1191 7.48307 14.5655 8.5585 14.671 9.70533Z" fill="#5D6C7B"/>
<path d="M14.6704 10.76C14.4959 12.676 13.4442 13.845 13.0266 14.2625C12.8203 14.4688 12.8203 14.8033 13.0266 15.0096L14.6267 16.6097C14.7298 16.7128 14.865 16.7644 15.0002 16.7644C15.1354 16.7644 15.2705 16.7128 15.3737 16.6097C16.9531 15.0305 17.874 12.9698 18 10.76H14.6704Z" fill="#5D6C7B"/>
<path d="M3.27189 13.7858C3.41919 13.5544 3.64215 13.2058 3.90962 12.7933C3.63544 12.2499 3.40358 11.5724 3.32965 10.76H0C0.126035 12.9698 1.04695 15.0305 2.62628 16.6097C2.72943 16.7129 2.8646 16.7644 2.99978 16.7644C3.13495 16.7644 3.27016 16.7128 3.37331 16.6097L3.92119 16.0618C3.76249 15.9854 3.61607 15.8821 3.48785 15.754C2.95952 15.2256 2.87068 14.4163 3.27189 13.7858Z" fill="#5D6C7B"/>
<path d="M9.52734 1.23605V4.5644C10.6739 4.66917 11.7493 5.1147 12.6348 5.85196L14.9881 3.49874C13.4665 2.14263 11.5601 1.35274 9.52734 1.23605Z" fill="#5D6C7B"/>
<path d="M7.82841 9.06992C7.01222 9.8861 4.45108 13.8972 4.16175 14.352C4.02903 14.5605 4.05899 14.8332 4.23375 15.008C4.40851 15.1827 4.68122 15.2127 4.88976 15.08C5.34444 14.7906 9.35564 12.2295 10.1718 11.4133C10.8179 10.7673 10.8179 9.71602 10.1718 9.06995C9.52576 8.42389 8.47448 8.42385 7.82841 9.06992Z" fill="#5D6C7B"/>
</symbol>


<symbol viewBox="0 0 79 46"  xmlns="http://www.w3.org/2000/svg" id="vk2">
<path fill-rule="evenodd" clip-rule="evenodd" d="M76.6334 3.09807C77.1785 1.31225 76.6334 0 74.0385 0H65.458C63.2762 0 62.2703 1.13359 61.7249 2.38358C61.7249 2.38358 57.3611 12.8306 51.1795 19.6164C49.1798 21.5809 48.2707 22.206 47.1798 22.206C46.6343 22.206 45.816 21.5809 45.816 19.7952V3.09807C45.816 0.955086 45.2118 0 43.3934 0H29.9096C28.5462 0 27.7262 0.994597 27.7262 1.93723C27.7262 3.96875 30.8168 4.43725 31.1354 10.1519V22.5632C31.1354 25.2842 30.6351 25.7777 29.5442 25.7777C26.6353 25.7777 19.5595 15.2841 15.3629 3.27658C14.5404 0.942734 13.7155 0 11.5226 0H2.94195C0.490351 0 0 1.13359 0 2.38358C0 4.61592 2.90902 15.6879 13.5449 30.3314C20.6354 40.3316 30.6254 45.7526 39.7159 45.7526C45.1703 45.7526 45.8451 44.5487 45.8451 42.4748V34.9164C45.8451 32.5086 46.3618 32.0278 48.089 32.0278C49.3615 32.0278 51.5433 32.653 56.6339 37.4747C62.452 43.1892 63.4112 45.7526 66.6835 45.7526H75.2644C77.7157 45.7526 78.9416 44.5487 78.2344 42.1725C77.4605 39.8045 74.683 36.3688 70.9973 32.2958C68.9973 29.9742 65.9972 27.4741 65.088 26.2238C63.8154 24.6169 64.1792 23.9025 65.088 22.474C65.088 22.474 75.5425 8.0089 76.6334 3.09807V3.09807Z" />
</symbol>

<symbol viewBox="0 0 20 12"xmlns="http://www.w3.org/2000/svg" id="vk">
<path d="M16.5958 6.85675C16.2725 6.44842 16.365 6.26675 16.5958 5.90175C16.6 5.89758 19.2692 2.20925 19.5442 0.958415L19.5458 0.957581C19.6825 0.501748 19.5458 0.166748 18.885 0.166748H16.6983C16.1417 0.166748 15.885 0.454248 15.7475 0.775915C15.7475 0.775915 14.6342 3.44092 13.0592 5.16842C12.5508 5.66758 12.3158 5.82758 12.0383 5.82758C11.9017 5.82758 11.6892 5.66758 11.6892 5.21175V0.957581C11.6892 0.410915 11.5333 0.166748 11.0725 0.166748H7.63417C7.285 0.166748 7.0775 0.421748 7.0775 0.659248C7.0775 1.17758 7.865 1.29675 7.94667 2.75508V5.91925C7.94667 6.61258 7.82083 6.74008 7.54167 6.74008C6.79833 6.74008 4.99417 4.06425 3.925 1.00175C3.70917 0.407581 3.49833 0.167581 2.9375 0.167581H0.75C0.125833 0.167581 0 0.455081 0 0.776748C0 1.34508 0.743333 4.17092 3.45667 7.90425C5.265 10.4526 7.81167 11.8334 10.1283 11.8334C11.5208 11.8334 11.6908 11.5267 11.6908 10.9992C11.6908 8.56425 11.565 8.33425 12.2625 8.33425C12.5858 8.33425 13.1425 8.49425 14.4425 9.72342C15.9283 11.1809 16.1725 11.8334 17.0042 11.8334H19.1908C19.8142 11.8334 20.13 11.5267 19.9483 10.9217C19.5325 9.64925 16.7225 7.03175 16.5958 6.85675Z" fill="#4B729F"/>
</symbol>
<symbol width="26" height="11" viewBox="0 0 26 11" fill="none" xmlns="http://www.w3.org/2000/svg" id="gp">
<path fill-rule="evenodd" clip-rule="evenodd" d="M12.0943 8.65901V5.7177H13.6124C14.2345 5.7177 14.7595 5.50926 15.1875 5.09817L15.2903 4.99395C16.0721 4.14283 16.0208 2.81692 15.1875 2.02948C14.7709 1.6126 14.2002 1.38679 13.6124 1.39837H11.1755V8.65901H12.0943ZM12.0944 4.82599V2.28998H13.6356C13.9666 2.28998 14.2806 2.41736 14.5146 2.64896C15.0112 3.13532 15.0226 3.94591 14.5432 4.44964C14.3091 4.69861 13.9781 4.83757 13.6356 4.82599H12.0944ZM19.5763 4.07912C19.1825 3.71435 18.646 3.52907 17.9669 3.52907C17.0937 3.52907 16.4374 3.85331 16.0037 4.496L16.8141 5.01131C17.1108 4.57127 17.516 4.35125 18.0297 4.35125C18.355 4.35125 18.6689 4.47284 18.9143 4.69286C19.154 4.9013 19.2909 5.20238 19.2909 5.52082V5.73505C18.9371 5.53819 18.4919 5.43398 17.9441 5.43398C17.3049 5.43398 16.7912 5.58451 16.4089 5.89138C16.0265 6.19825 15.8325 6.60355 15.8325 7.11886C15.8211 7.58785 16.0208 8.03368 16.3746 8.33476C16.7342 8.659 17.1907 8.82112 17.7272 8.82112C18.3607 8.82112 18.8629 8.53741 19.2453 7.96999H19.2852V8.659H20.1641V5.59609C20.1641 4.95341 19.9701 4.44389 19.5763 4.07912ZM17.0825 7.74422C16.8941 7.60526 16.78 7.37945 16.78 7.13627C16.78 6.86414 16.9055 6.63833 17.151 6.45884C17.4021 6.27935 17.7161 6.18671 18.0871 6.18671C18.6008 6.18092 19.0003 6.29672 19.2857 6.52832C19.2857 6.92204 19.1316 7.26365 18.8291 7.55315C18.5551 7.83107 18.1841 7.98739 17.796 7.98739C17.5391 7.99318 17.288 7.90633 17.0825 7.74422ZM22.1388 10.8418L25.2091 3.69118H24.2104L22.7894 7.25781H22.7722L21.3169 3.69118H20.3182L22.3328 8.34054L21.1914 10.8418H22.1388Z" fill="#282739"/>
<path d="M8.92219 5.08081C8.92219 4.7971 8.89936 4.51339 8.85371 4.23547H4.97864V5.8393H7.19867C7.10736 6.35461 6.81059 6.81781 6.37686 7.10731V8.1495H7.70089C8.47704 7.42575 8.92219 6.35461 8.92219 5.08081Z" fill="#4285F4"/>
<path d="M4.97882 9.157C6.08599 9.157 7.02194 8.78644 7.70107 8.14954L6.37704 7.10735C6.00609 7.36211 5.5324 7.50686 4.97882 7.50686C3.9059 7.50686 2.99848 6.77153 2.67318 5.78723H1.3092V6.86417C2.00546 8.27113 3.42651 9.157 4.97882 9.157Z" fill="#34A853"/>
<path d="M2.67333 5.78722C2.50209 5.27192 2.50209 4.71029 2.67333 4.18919V3.11804H1.30913C0.721215 4.29341 0.721215 5.683 1.30913 6.85837L2.67333 5.78722Z" fill="#FBBC04"/>
<path d="M4.97882 2.46949C5.56665 2.45791 6.13164 2.68372 6.55396 3.09481L7.72961 1.90207C6.98199 1.19569 6.00038 0.807764 4.97882 0.819344C3.42651 0.819344 2.00546 1.711 1.3092 3.11797L2.67318 4.1949C2.99848 3.20482 3.9059 2.46949 4.97882 2.46949Z" fill="#EA4335"/>
</symbol>



<symbol  viewBox="0 0 26 11" fill="none" xmlns="http://www.w3.org/2000/svg" id="appelpay">
<path fill-rule="evenodd" clip-rule="evenodd" d="M5.27297 1.43958C4.98694 1.7822 4.52929 2.05244 4.07165 2.01383C4.01444 1.55057 4.2385 1.05836 4.50069 0.754343C4.78672 0.402072 5.28728 0.151138 5.69249 0.131836C5.74016 0.614399 5.55424 1.08731 5.27297 1.43958ZM5.68769 2.10551C5.2845 2.08202 4.91662 2.22825 4.61947 2.34636C4.42825 2.42237 4.26632 2.48673 4.14312 2.48673C4.00487 2.48673 3.83625 2.41892 3.64694 2.34279C3.39887 2.24304 3.11526 2.12899 2.81785 2.13446C2.13614 2.14411 1.5021 2.53499 1.1541 3.15749C0.439024 4.40251 0.96818 6.2459 1.65942 7.25928C1.99789 7.76115 2.4031 8.31127 2.93702 8.29197C3.17192 8.283 3.34089 8.21042 3.51576 8.13531C3.71708 8.04883 3.92621 7.959 4.25277 7.959C4.568 7.959 4.76799 8.04649 4.95997 8.13048C5.14251 8.21033 5.31781 8.28702 5.57804 8.28232C6.13103 8.27267 6.47904 7.78045 6.81751 7.27859C7.18276 6.73996 7.34328 6.21428 7.36764 6.13449L7.36764 6.13449L7.3705 6.12526C7.36992 6.12467 7.3654 6.12258 7.35744 6.11889C7.23534 6.0623 6.30207 5.62981 6.29312 4.47007C6.28413 3.49663 7.03336 3.00342 7.1513 2.92579L7.15131 2.92578C7.15849 2.92106 7.16332 2.91787 7.16551 2.91621C6.68879 2.20202 5.94511 2.12481 5.68769 2.10551ZM9.51577 8.22923V0.70607H12.3046C13.7443 0.70607 14.7501 1.7098 14.7501 3.17679C14.7501 4.64379 13.7252 5.65717 12.2664 5.65717H10.6694V8.22923H9.51577ZM10.6693 1.69052H11.9994C13.0005 1.69052 13.5725 2.23099 13.5725 3.18164C13.5725 4.13229 13.0005 4.67759 11.9946 4.67759H10.6693V1.69052ZM18.5592 7.32688C18.2541 7.91561 17.5819 8.28718 16.8573 8.28718C15.7847 8.28718 15.0362 7.64055 15.0362 6.66577C15.0362 5.70064 15.7608 5.1457 17.1004 5.06366L18.5401 4.9768V4.56179C18.5401 3.94894 18.1444 3.61597 17.4389 3.61597C16.8573 3.61597 16.433 3.91999 16.3472 4.38325H15.3079C15.3413 3.40847 16.2471 2.6991 17.4722 2.6991C18.7928 2.6991 19.6508 3.39882 19.6508 4.48458V8.22927H18.583V7.32688H18.5592ZM17.1671 7.39441C16.5521 7.39441 16.1612 7.09522 16.1612 6.63678C16.1612 6.16387 16.5378 5.88881 17.2576 5.84538L18.54 5.76335V6.188C18.54 6.89254 17.9489 7.39441 17.1671 7.39441ZM23.1928 8.52363C22.7304 9.84103 22.2012 10.2753 21.0762 10.2753C20.9904 10.2753 20.7043 10.2657 20.6376 10.2464V9.34399C20.7091 9.35364 20.8855 9.36329 20.9761 9.36329C21.4862 9.36329 21.7722 9.14614 21.9486 8.58154L22.0535 8.24857L20.0989 2.77148H21.305L22.6637 7.21589H22.6875L24.0461 2.77148H25.2189L23.1928 8.52363Z" fill="#282739"/>
</symbol>
<symbol  viewBox="0 0 25 9" fill="none" xmlns="http://www.w3.org/2000/svg" id="visa">
<path fill-rule="evenodd" clip-rule="evenodd" d="M6.23608 8.14597H4.17166L2.6236 2.24001C2.55012 1.96834 2.3941 1.72816 2.16461 1.61497C1.59189 1.3305 0.960785 1.1041 0.272308 0.98992V0.762541H3.59793C4.05691 0.762541 4.40115 1.1041 4.45853 1.50079L5.26175 5.76095L7.32516 0.762541H9.33221L6.23608 8.14597ZM10.4797 8.14597H8.52999L10.1354 0.762541H12.0851L10.4797 8.14597ZM14.6075 2.808C14.6649 2.41034 15.0091 2.18296 15.4107 2.18296C16.0418 2.12586 16.7293 2.24005 17.303 2.52353L17.6473 0.933846C17.0735 0.706467 16.4424 0.592285 15.8697 0.592285C13.9774 0.592285 12.6005 1.615 12.6005 3.0344C12.6005 4.1142 13.5758 4.68117 14.2643 5.02274C15.0091 5.36331 15.296 5.59069 15.2386 5.93127C15.2386 6.44213 14.6649 6.66951 14.0922 6.66951C13.4037 6.66951 12.7152 6.49923 12.0851 6.21476L11.7409 7.80543C12.4293 8.08891 13.1742 8.20309 13.8627 8.20309C15.9845 8.2592 17.303 7.23747 17.303 5.70389C17.303 3.77264 14.6075 3.65944 14.6075 2.808ZM24.1264 8.14597L22.5783 0.762541H20.9155C20.5713 0.762541 20.2271 0.98992 20.1123 1.3305L17.2457 8.14597H19.2527L19.6533 7.06715H22.1194L22.3488 8.14597H24.1264ZM21.2024 2.75094L21.7751 5.53363H20.1697L21.2024 2.75094Z" fill="#172B85"/>
</symbol>
<symbol  viewBox="0 0 24 16"  xmlns="http://www.w3.org/2000/svg" id="webmoney">
<path fill-rule="evenodd" clip-rule="evenodd" d="M7.54742 12.0491C7.69995 11.9699 7.95923 11.8659 8.23388 11.8659C8.86432 11.8659 9.20508 12.2916 9.20508 13.0838C9.20508 14.0091 8.74758 14.4596 8.01022 14.4596C7.7406 14.4596 7.32367 14.3755 7.01852 14.2169V10.7622L7.54742 10.6384V12.0491ZM7.54241 14.0338C7.70501 14.1031 7.88308 14.1129 8.01024 14.1129C8.38653 14.1129 8.67125 13.8853 8.67125 13.0837C8.67125 12.4549 8.43734 12.252 8.09667 12.252C7.89315 12.252 7.74584 12.3064 7.54241 12.4153V14.0338ZM2.12647 11.9301H2.16208L2.85349 14.4001H3.40262L4.22651 10.8907H3.6315L3.11286 13.5092H3.07742L2.37046 10.8907H1.91791L1.2569 13.5092H1.22128L0.651735 10.8907H0.0822754L0.906067 14.4001H1.45511L2.12647 11.9301ZM6.4798 14.2317V13.8556C6.2001 14.0189 5.94595 14.1129 5.67139 14.1129C5.14761 14.1129 4.8985 13.8505 4.8985 13.2566H6.55606V13.0736C6.55606 12.2669 6.16449 11.8659 5.52902 11.8659C4.76629 11.8659 4.37472 12.4104 4.37472 13.1626C4.37472 13.9448 4.72555 14.4596 5.57974 14.4596C5.94595 14.4596 6.25101 14.3606 6.4798 14.2317ZM6.07299 12.9251H4.9088C4.96456 12.4303 5.20342 12.1976 5.51379 12.1976C5.78835 12.1976 6.04781 12.4053 6.07299 12.9251ZM11.5442 13.6576H11.5187L10.3797 10.8907H9.76445V14.4001H10.2221V11.9154H10.2678L11.3053 14.4001H11.6306L12.668 11.856H12.7138V14.4001H13.263V10.8907H12.6323L11.5442 13.6576ZM13.8224 13.1626C13.8224 12.2964 14.3106 11.8659 14.9817 11.8659C15.653 11.8659 16.1413 12.2964 16.1413 13.1626C16.1413 14.0091 15.6785 14.4596 14.9817 14.4596C14.285 14.4596 13.8224 14.0091 13.8224 13.1626ZM15.6072 13.1626C15.6072 12.4945 15.3274 12.2124 14.9817 12.2124C14.6461 12.2124 14.3562 12.4945 14.3562 13.1626C14.3562 13.8409 14.6208 14.1129 14.9817 14.1129C15.3427 14.1129 15.6072 13.8409 15.6072 13.1626ZM17.9206 11.8659C17.3361 11.8659 16.8529 12.0985 16.6241 12.2321V14.4001H17.153V12.44C17.3105 12.3511 17.5699 12.2618 17.7734 12.2618C18.0327 12.2618 18.2308 12.3311 18.2308 12.7222V14.4001H18.7596V12.6082C18.7596 12.0985 18.531 11.8659 17.9206 11.8659ZM21.3376 13.8556V14.2317C21.1089 14.3606 20.8039 14.4596 20.4376 14.4596C19.5835 14.4596 19.2326 13.9448 19.2326 13.1626C19.2326 12.4104 19.6243 11.8659 20.3869 11.8659C21.0227 11.8659 21.4143 12.2669 21.4143 13.0736V13.2566H19.7566C19.7566 13.8505 20.0057 14.1129 20.5294 14.1129C20.8039 14.1129 21.0582 14.0189 21.3376 13.8556ZM19.7667 12.9251H20.9311C20.9058 12.4053 20.6463 12.1976 20.3717 12.1976C20.0614 12.1976 19.8227 12.4303 19.7667 12.9251ZM23.9364 11.95H23.3923L22.8124 13.7714H22.7821L22.1312 11.95H21.5718L22.5482 14.4248C22.4259 14.791 22.2126 15.0585 21.8668 15.0585V15.4642C22.4513 15.4642 22.7616 15.108 23.0159 14.4248L23.9364 11.95Z" fill="#0068A3"/>
<path fill-rule="evenodd" clip-rule="evenodd" d="M11.6684 0.515991C12.3682 0.515991 13.0309 0.674612 13.6211 0.956226C13.7138 0.999033 13.8063 1.04613 13.899 1.09813L13.4887 1.45555L12.8723 0.83516L11.832 1.73839L11.214 1.08193L9.27607 2.7823L10.5185 4.11508L10.0302 4.53308L11.254 5.86788L10.7686 6.28492L12.5173 8.17953L13.5553 7.24934L14.4527 8.24615C14.2742 8.38122 14.0798 8.50833 13.8656 8.62581C13.2166 8.98603 12.4665 9.19228 11.6684 9.19228C9.21374 9.19228 7.21173 7.2433 7.21173 4.85426C7.21173 2.4647 9.21374 0.515991 11.6684 0.515991ZM10.8561 4.58003L11.9159 3.65107L12.8702 4.68289L11.8105 5.61151L10.8561 4.58003ZM12.6696 5.43385L11.6098 6.36255L12.5642 7.39438L13.624 6.46541L12.6696 5.43385ZM10.0979 2.81844L11.1576 1.88974L12.1117 2.9213L11.0519 3.85001L10.0979 2.81844ZM12.8375 1.62202L12.0426 2.31849L12.7582 3.09242L13.5531 2.3957L12.8375 1.62202ZM13.4548 5.50921L14.2499 4.81249L14.9655 5.58634L14.1707 6.28289L13.4548 5.50921ZM14.9487 6.37516L14.1541 7.07197L14.8697 7.84538L15.6645 7.14883L14.9487 6.37516ZM14.4742 3.4903L15.0041 3.0259L15.4811 3.54169L14.9515 4.006L14.4742 3.4903ZM14.3271 1.49343L13.7972 1.95773L14.2742 2.47352L14.8042 2.00921L14.3271 1.49343ZM15.1516 5.02272L15.6815 4.55832L16.1586 5.07402L15.6287 5.53841L15.1516 5.02272ZM13.57 3.17756L12.7752 3.87437L13.491 4.64778L14.2856 3.95123L13.57 3.17756Z" fill="#0068A3"/>
</symbol>
<symbol  fill="none" xmlns="http://www.w3.org/2000/svg" id="qiwi">
<path fill-rule="evenodd" clip-rule="evenodd" d="M7.54742 12.0491C7.69995 11.9699 7.95923 11.8659 8.23388 11.8659C8.86432 11.8659 9.20508 12.2916 9.20508 13.0838C9.20508 14.0091 8.74758 14.4596 8.01022 14.4596C7.7406 14.4596 7.32367 14.3755 7.01852 14.2169V10.7622L7.54742 10.6384V12.0491ZM7.54241 14.0338C7.70501 14.1031 7.88308 14.1129 8.01024 14.1129C8.38653 14.1129 8.67125 13.8853 8.67125 13.0837C8.67125 12.4549 8.43734 12.252 8.09667 12.252C7.89315 12.252 7.74584 12.3064 7.54241 12.4153V14.0338ZM2.12647 11.9301H2.16208L2.85349 14.4001H3.40262L4.22651 10.8907H3.6315L3.11286 13.5092H3.07742L2.37046 10.8907H1.91791L1.2569 13.5092H1.22128L0.651735 10.8907H0.0822754L0.906067 14.4001H1.45511L2.12647 11.9301ZM6.4798 14.2317V13.8556C6.2001 14.0189 5.94595 14.1129 5.67139 14.1129C5.14761 14.1129 4.8985 13.8505 4.8985 13.2566H6.55606V13.0736C6.55606 12.2669 6.16449 11.8659 5.52902 11.8659C4.76629 11.8659 4.37472 12.4104 4.37472 13.1626C4.37472 13.9448 4.72555 14.4596 5.57974 14.4596C5.94595 14.4596 6.25101 14.3606 6.4798 14.2317ZM6.07299 12.9251H4.9088C4.96456 12.4303 5.20342 12.1976 5.51379 12.1976C5.78835 12.1976 6.04781 12.4053 6.07299 12.9251ZM11.5442 13.6576H11.5187L10.3797 10.8907H9.76445V14.4001H10.2221V11.9154H10.2678L11.3053 14.4001H11.6306L12.668 11.856H12.7138V14.4001H13.263V10.8907H12.6323L11.5442 13.6576ZM13.8224 13.1626C13.8224 12.2964 14.3106 11.8659 14.9817 11.8659C15.653 11.8659 16.1413 12.2964 16.1413 13.1626C16.1413 14.0091 15.6785 14.4596 14.9817 14.4596C14.285 14.4596 13.8224 14.0091 13.8224 13.1626ZM15.6072 13.1626C15.6072 12.4945 15.3274 12.2124 14.9817 12.2124C14.6461 12.2124 14.3562 12.4945 14.3562 13.1626C14.3562 13.8409 14.6208 14.1129 14.9817 14.1129C15.3427 14.1129 15.6072 13.8409 15.6072 13.1626ZM17.9206 11.8659C17.3361 11.8659 16.8529 12.0985 16.6241 12.2321V14.4001H17.153V12.44C17.3105 12.3511 17.5699 12.2618 17.7734 12.2618C18.0327 12.2618 18.2308 12.3311 18.2308 12.7222V14.4001H18.7596V12.6082C18.7596 12.0985 18.531 11.8659 17.9206 11.8659ZM21.3376 13.8556V14.2317C21.1089 14.3606 20.8039 14.4596 20.4376 14.4596C19.5835 14.4596 19.2326 13.9448 19.2326 13.1626C19.2326 12.4104 19.6243 11.8659 20.3869 11.8659C21.0227 11.8659 21.4143 12.2669 21.4143 13.0736V13.2566H19.7566C19.7566 13.8505 20.0057 14.1129 20.5294 14.1129C20.8039 14.1129 21.0582 14.0189 21.3376 13.8556ZM19.7667 12.9251H20.9311C20.9058 12.4053 20.6463 12.1976 20.3717 12.1976C20.0614 12.1976 19.8227 12.4303 19.7667 12.9251ZM23.9364 11.95H23.3923L22.8124 13.7714H22.7821L22.1312 11.95H21.5718L22.5482 14.4248C22.4259 14.791 22.2126 15.0585 21.8668 15.0585V15.4642C22.4513 15.4642 22.7616 15.108 23.0159 14.4248L23.9364 11.95Z" fill="#0068A3"/>
<path fill-rule="evenodd" clip-rule="evenodd" d="M11.6684 0.515991C12.3682 0.515991 13.0309 0.674612 13.6211 0.956226C13.7138 0.999033 13.8063 1.04613 13.899 1.09813L13.4887 1.45555L12.8723 0.83516L11.832 1.73839L11.214 1.08193L9.27607 2.7823L10.5185 4.11508L10.0302 4.53308L11.254 5.86788L10.7686 6.28492L12.5173 8.17953L13.5553 7.24934L14.4527 8.24615C14.2742 8.38122 14.0798 8.50833 13.8656 8.62581C13.2166 8.98603 12.4665 9.19228 11.6684 9.19228C9.21374 9.19228 7.21173 7.2433 7.21173 4.85426C7.21173 2.4647 9.21374 0.515991 11.6684 0.515991ZM10.8561 4.58003L11.9159 3.65107L12.8702 4.68289L11.8105 5.61151L10.8561 4.58003ZM12.6696 5.43385L11.6098 6.36255L12.5642 7.39438L13.624 6.46541L12.6696 5.43385ZM10.0979 2.81844L11.1576 1.88974L12.1117 2.9213L11.0519 3.85001L10.0979 2.81844ZM12.8375 1.62202L12.0426 2.31849L12.7582 3.09242L13.5531 2.3957L12.8375 1.62202ZM13.4548 5.50921L14.2499 4.81249L14.9655 5.58634L14.1707 6.28289L13.4548 5.50921ZM14.9487 6.37516L14.1541 7.07197L14.8697 7.84538L15.6645 7.14883L14.9487 6.37516ZM14.4742 3.4903L15.0041 3.0259L15.4811 3.54169L14.9515 4.006L14.4742 3.4903ZM14.3271 1.49343L13.7972 1.95773L14.2742 2.47352L14.8042 2.00921L14.3271 1.49343ZM15.1516 5.02272L15.6815 4.55832L16.1586 5.07402L15.6287 5.53841L15.1516 5.02272ZM13.57 3.17756L12.7752 3.87437L13.491 4.64778L14.2856 3.95123L13.57 3.17756Z" fill="#0068A3"/>
</symbol>
<symbol  viewBox="0 0 22 14" fill="none" xmlns="http://www.w3.org/2000/svg" id="maestro">
<path d="M13.347 7.12371C13.347 10.8356 10.3724 13.8447 6.70312 13.8447C3.03381 13.8447 0.0592499 10.8356 0.0592499 7.12371C0.0592499 3.4118 3.03381 0.40271 6.70312 0.40271C10.3724 0.40271 13.347 3.4118 13.347 7.12371Z" fill="#ED0006"/>
<path d="M21.9661 7.12371C21.9661 10.8356 18.9915 13.8447 15.3222 13.8447C11.6529 13.8447 8.67831 10.8356 8.67831 7.12371C8.67831 3.4118 11.6529 0.40271 15.3222 0.40271C18.9915 0.40271 21.9661 3.4118 21.9661 7.12371Z" fill="#0099DF"/>
<path fill-rule="evenodd" clip-rule="evenodd" d="M11.0127 12.2391C12.4412 11.0064 13.347 9.17206 13.347 7.12372C13.347 5.07538 12.4412 3.24106 11.0127 2.0083C9.58418 3.24106 8.67838 5.07538 8.67838 7.12372C8.67838 9.17206 9.58418 11.0064 11.0127 12.2391Z" fill="#6C6BBD"/>
</symbol>
<symbol  viewBox="0 0 23 14" fill="none" xmlns="http://www.w3.org/2000/svg" id="mastercart">
<path fill-rule="evenodd" clip-rule="evenodd" d="M15.3767 13.8447C19.046 13.8447 22.0206 10.8356 22.0206 7.12371C22.0206 3.4118 19.046 0.40271 15.3767 0.40271C13.7323 0.40271 12.2273 1.0071 11.0672 2.00828C9.90702 1.00712 8.40211 0.402738 6.75766 0.402738C3.08835 0.402738 0.113785 3.41183 0.113785 7.12374C0.113785 10.8356 3.08835 13.8447 6.75766 13.8447C8.40212 13.8447 9.90705 13.2403 11.0672 12.2392C12.2274 13.2403 13.7323 13.8447 15.3767 13.8447Z" fill="#ED0006"/>
<path fill-rule="evenodd" clip-rule="evenodd" d="M11.0672 12.2392C12.4957 11.0064 13.4015 9.17206 13.4015 7.12371C13.4015 5.07535 12.4957 3.24102 11.0672 2.00826C12.2274 1.0071 13.7323 0.40271 15.3767 0.40271C19.046 0.40271 22.0206 3.4118 22.0206 7.12371C22.0206 10.8356 19.046 13.8447 15.3767 13.8447C13.7323 13.8447 12.2274 13.2403 11.0672 12.2392Z" fill="#F9A000"/>
<path fill-rule="evenodd" clip-rule="evenodd" d="M11.0672 12.2391C12.4957 11.0064 13.4015 9.17206 13.4015 7.12372C13.4015 5.07538 12.4957 3.24106 11.0672 2.0083C9.63871 3.24106 8.73291 5.07538 8.73291 7.12372C8.73291 9.17206 9.63871 11.0064 11.0672 12.2391Z" fill="#FF5E00"/>
</symbol>


</svg>