<svg width="66" height="59" viewBox="0 0 66 59" fill="none" xmlns="http://www.w3.org/2000/svg">
<path d="M3 19.2564C3 3 19.2564 3 33.1905 3C47.1245 3 63.381 3 63.381 19.2564C63.381 37.8352 47.1245 16.9341 47.1245 16.9341H19.2564C19.2564 16.9341 3 37.8352 3 19.2564ZM21.5788 23.9011C21.5788 23.9011 9.96703 35.5128 9.96703 56.4139H56.4139C56.4139 35.5128 44.8022 23.9011 44.8022 23.9011H21.5788Z" stroke="black" stroke-width="4.64469" stroke-linecap="round" stroke-linejoin="round"/>
<path d="M33.1905 49.4469C38.3209 49.4469 42.4799 45.2879 42.4799 40.1575C42.4799 35.0272 38.3209 30.8682 33.1905 30.8682C28.0601 30.8682 23.9011 35.0272 23.9011 40.1575C23.9011 45.2879 28.0601 49.4469 33.1905 49.4469Z" stroke="black" stroke-width="4.64469" stroke-linecap="round" stroke-linejoin="round"/>
</svg>
